<svg width="203" height="203" viewBox="0 0 203 203" fill="none" xmlns="http://www.w3.org/2000/svg">
<path d="M31.9265 110.5H0.150635C4.44467 160.025 44.2529 199.378 93.9796 202.965V169.657C56.0405 166.07 35.3449 139.346 31.9265 110.5Z" fill="#D40000"/>
<path d="M93.98 34.083V0.269531C43.5966 3.90683 3.38422 44.2708 -0.000488281 94.7215H31.7585C34.6549 65.32 55.3842 37.7371 93.98 34.0998V34.083Z" fill="#FFB600"/>
<path d="M109.759 0V34.2176C120.553 35.43 129.899 38.5285 137.831 43.0246L114.087 66.7681C90.1248 57.6916 62.845 76.6696 63.3502 102.451C65.5056 159.401 151.369 147.26 137.696 91.9429L162.096 67.5427C166.761 75.9118 169.556 85.224 170.499 94.7046H202.999V0H109.759Z" fill="#3FCE71"/>
<path d="M109.758 169.522V202.897C159.03 198.873 198.35 159.704 202.61 110.517H170.329C166.944 138.975 146.754 165.413 109.758 169.539V169.522Z" fill="#1B75BB"/>
</svg>
