<svg width="40" height="40" viewBox="0 0 40 40" fill="none" xmlns="http://www.w3.org/2000/svg">
<rect width="40" height="40" rx="8" fill="#DAFFED"/>
<path d="M23 30.75H17C11.57 30.75 9.25 28.43 9.25 23V17C9.25 11.57 11.57 9.25 17 9.25H23C28.43 9.25 30.75 11.57 30.75 17V23C30.75 28.43 28.43 30.75 23 30.75ZM17 10.75C12.39 10.75 10.75 12.39 10.75 17V23C10.75 27.61 12.39 29.25 17 29.25H23C27.61 29.25 29.25 27.61 29.25 23V17C29.25 12.39 27.61 10.75 23 10.75H17Z" fill="#292D32"/>
<path d="M23.58 27.25C23.17 27.25 22.83 26.91 22.83 26.5V22.6C22.83 22.19 23.17 21.85 23.58 21.85C23.99 21.85 24.33 22.19 24.33 22.6V26.5C24.33 26.91 23.99 27.25 23.58 27.25Z" fill="#292D32"/>
<path d="M23.58 16.2C23.17 16.2 22.83 15.86 22.83 15.45V13.5C22.83 13.09 23.17 12.75 23.58 12.75C23.99 12.75 24.33 13.09 24.33 13.5V15.45C24.33 15.86 23.99 16.2 23.58 16.2Z" fill="#292D32"/>
<path d="M23.58 21.4C21.73 21.4 20.23 19.9 20.23 18.05C20.23 16.2 21.73 14.7 23.58 14.7C25.43 14.7 26.93 16.2 26.93 18.05C26.93 19.9 25.42 21.4 23.58 21.4ZM23.58 16.2C22.56 16.2 21.73 17.03 21.73 18.05C21.73 19.07 22.56 19.9 23.58 19.9C24.6 19.9 25.43 19.07 25.43 18.05C25.43 17.03 24.59 16.2 23.58 16.2Z" fill="#78C8A1"/>
<path d="M16.42 27.25C16.01 27.25 15.67 26.91 15.67 26.5V24.55C15.67 24.14 16.01 23.8 16.42 23.8C16.83 23.8 17.17 24.14 17.17 24.55V26.5C17.17 26.91 16.84 27.25 16.42 27.25Z" fill="#292D32"/>
<path d="M16.42 18.15C16.01 18.15 15.67 17.81 15.67 17.4V13.5C15.67 13.09 16.01 12.75 16.42 12.75C16.83 12.75 17.17 13.09 17.17 13.5V17.4C17.17 17.81 16.84 18.15 16.42 18.15Z" fill="#292D32"/>
<path d="M16.42 25.3C14.57 25.3 13.07 23.8 13.07 21.95C13.07 20.1 14.57 18.6 16.42 18.6C18.27 18.6 19.77 20.1 19.77 21.95C19.77 23.8 18.27 25.3 16.42 25.3ZM16.42 20.1C15.4 20.1 14.57 20.93 14.57 21.95C14.57 22.97 15.4 23.8 16.42 23.8C17.44 23.8 18.27 22.97 18.27 21.95C18.27 20.93 17.45 20.1 16.42 20.1Z" fill="#78C8A1"/>
</svg>
