<svg width="40" height="40" viewBox="0 0 40 40" fill="none" xmlns="http://www.w3.org/2000/svg">
<rect width="40" height="40" rx="8" fill="#DAFFED"/>
<path d="M26 19.25C26.4142 19.25 26.75 19.5858 26.75 20C26.75 20.4142 26.4142 20.75 26 20.75H14C13.5858 20.75 13.25 20.4142 13.25 20C13.25 19.5858 13.5858 19.25 14 19.25H26Z" fill="#292D32"/>
<path d="M18.2496 25.0004V15.0004C18.2496 13.8848 18.5291 12.9104 19.2193 12.2201C19.9096 11.5299 20.884 11.2504 21.9996 11.2504H25.9996C26.4138 11.2504 26.7496 11.5862 26.7496 12.0004C26.7496 12.4146 26.4138 12.7504 25.9996 12.7504H21.9996C21.1152 12.7504 20.5896 12.9709 20.2799 13.2807C19.9701 13.5904 19.7496 14.116 19.7496 15.0004V25.0004C19.7496 25.8848 19.9701 26.4104 20.2799 26.7201C20.5896 27.0299 21.1152 27.2504 21.9996 27.2504H25.9996C26.4138 27.2504 26.7496 27.5862 26.7496 28.0004C26.7496 28.4146 26.4138 28.7504 25.9996 28.7504H21.9996C20.884 28.7504 19.9096 28.4709 19.2193 27.7807C18.5291 27.0904 18.2496 26.116 18.2496 25.0004Z" fill="#292D32"/>
<path d="M29.25 19.9992C29.25 19.3088 28.6904 18.7492 28 18.7492C27.3096 18.7492 26.75 19.3088 26.75 19.9992C26.75 20.6895 27.3096 21.2492 28 21.2492C28.6904 21.2492 29.25 20.6895 29.25 19.9992ZM30.75 19.9992C30.75 21.518 29.5188 22.7492 28 22.7492C26.4812 22.7492 25.25 21.518 25.25 19.9992C25.25 18.4804 26.4812 17.2492 28 17.2492C29.5188 17.2492 30.75 18.4804 30.75 19.9992Z" fill="#78C8A1"/>
<path d="M29.25 11.9996C29.25 11.3092 28.6904 10.7496 28 10.7496C27.3096 10.7496 26.75 11.3092 26.75 11.9996C26.75 12.6899 27.3096 13.2496 28 13.2496C28.6904 13.2496 29.25 12.6899 29.25 11.9996ZM30.75 11.9996C30.75 13.5184 29.5188 14.7496 28 14.7496C26.4812 14.7496 25.25 13.5184 25.25 11.9996C25.25 10.4808 26.4812 9.24959 28 9.24959C29.5188 9.24959 30.75 10.4808 30.75 11.9996Z" fill="#78C8A1"/>
<path d="M29.25 28C29.25 27.3096 28.6904 26.75 28 26.75C27.3096 26.75 26.75 27.3096 26.75 28C26.75 28.6904 27.3096 29.25 28 29.25C28.6904 29.25 29.25 28.6904 29.25 28ZM30.75 28C30.75 29.5188 29.5188 30.75 28 30.75C26.4812 30.75 25.25 29.5188 25.25 28C25.25 26.4812 26.4812 25.25 28 25.25C29.5188 25.25 30.75 26.4812 30.75 28Z" fill="#78C8A1"/>
<path d="M13.2496 19.9992C13.2496 19.3088 12.69 18.7492 11.9996 18.7492C11.3092 18.7492 10.7496 19.3088 10.7496 19.9992C10.7496 20.6895 11.3092 21.2492 11.9996 21.2492C12.69 21.2492 13.2496 20.6895 13.2496 19.9992ZM14.7496 19.9992C14.7496 21.518 13.5184 22.7492 11.9996 22.7492C10.4808 22.7492 9.2496 21.518 9.2496 19.9992C9.2496 18.4804 10.4808 17.2492 11.9996 17.2492C13.5184 17.2492 14.7496 18.4804 14.7496 19.9992Z" fill="#78C8A1"/>
</svg>
