<svg width="512" height="512" viewBox="0 0 512 512" fill="none" xmlns="http://www.w3.org/2000/svg">
<path d="M272 264H256C246.4 264 240 257.6 240 248C240 238.4 246.4 232 256 232H272C281.6 232 288 238.4 288 248C288 257.6 281.6 264 272 264Z" fill="#5B5D70"/>
<path d="M352 72V192C352 249.6 305.6 296 248 296C190.4 296 144 249.6 144 192V72" fill="#FED8AA"/>
<path d="M248 304C185.6 304 136 254.4 136 192V72H152V192C152 244.8 195.2 288 248 288C300.8 288 344 244.8 344 192V72H360V192C360 254.4 310.4 304 248 304Z" fill="#40455A"/>
<path d="M192 280V320C192 350.4 217.6 376 248 376C278.4 376 304 350.4 304 320V280" fill="#FED8AA"/>
<path d="M248 384C212.8 384 184 355.2 184 320V280H200V320C200 347.2 220.8 368 248 368C275.2 368 296 347.2 296 320V280H312V320C312 355.2 283.2 384 248 384Z" fill="#40455A"/>
<path d="M302.4 328C297.6 355.2 275.2 376 248 376C219.2 376 196.8 355.2 193.6 328L104 358.4C70.4 368 48 400 48 433.6V504H448V433.6C448 398.4 425.6 368 393.6 358.4L302.4 328Z" fill="#67ACD5"/>
<path d="M448 504V433.6C448 419.2 443.2 404.8 436.8 392C388.8 398.4 352 438.4 352 488V504H448ZM48 504V433.6C48 419.2 52.8 404.8 59.2 392C107.2 398.4 144 438.4 144 488V504H48Z" fill="#5791D1"/>
<path d="M384 200H352V152H368C377.6 152 384 158.4 384 168V200ZM144 200H128C118.4 200 112 193.6 112 184V168C112 158.4 118.4 152 128 152H144V200Z" fill="#5B5D70"/>
<path d="M272 264H256C246.4 264 240 257.6 240 248C240 238.4 246.4 232 256 232H272C281.6 232 288 238.4 288 248C288 257.6 281.6 264 272 264Z" fill="#5C5E70"/>
<path d="M272 272H256C243.2 272 232 260.8 232 248C232 235.2 243.2 224 256 224H272C284.8 224 296 235.2 296 248C296 260.8 284.8 272 272 272ZM256 240C251.2 240 248 243.2 248 248C248 252.8 251.2 256 256 256H272C276.8 256 280 252.8 280 248C280 243.2 276.8 240 272 240H256Z" fill="#40455A"/>
<path d="M192 40C192 30.4 185.6 24 176 24H172.8C140.8 24 118.4 52.8 126.4 83.2L144 152H152C161.6 152 168 145.6 168 136V104C168 94.4 174.4 88 184 88H312C321.6 88 328 94.4 328 104V136C328 145.6 334.4 152 344 152H352L366.4 86.4C376 46.4 345.6 8 304 8H224C206.4 8 192 22.4 192 40Z" fill="#A17852"/>
<path d="M358.4 160H344C331.2 160 320 148.8 320 136V104C320 99.2 316.8 96 312 96H184C179.2 96 176 99.2 176 104V136C176 148.8 164.8 160 152 160H137.6L136 153.6L118.4 86.4C113.6 68.8 118.4 52.8 128 38.4C137.6 24 156.8 16 172.8 16H176C180.8 16 185.6 17.6 188.8 20.8C196.8 8 209.6 0 224 0H304C326.4 0 347.2 9.6 360 27.2C372.8 44.8 379.2 67.2 374.4 88L358.4 160ZM184 80H312C324.8 80 336 91.2 336 104V136C336 140.8 339.2 144 344 144H345.6L358.4 84.8C361.6 68.8 358.4 51.2 347.2 38.4C337.6 24 321.6 16 304 16H224C211.2 16 200 27.2 200 40H184C184 35.2 180.8 32 176 32H172.8C160 32 148.8 38.4 140.8 48C132.8 57.6 131.2 70.4 134.4 81.6L150.4 144H152C156.8 144 160 140.8 160 136V104C160 91.2 171.2 80 184 80ZM248 384C212.8 384 184 355.2 184 320V280C184 275.2 187.2 272 192 272C196.8 272 200 275.2 200 280V320C200 347.2 220.8 368 248 368C275.2 368 296 347.2 296 320V280C296 275.2 299.2 272 304 272C308.8 272 312 275.2 312 280V320C312 355.2 283.2 384 248 384Z" fill="#40455A"/>
<path d="M248 304C185.6 304 136 254.4 136 192V152C136 147.2 139.2 144 144 144C148.8 144 152 147.2 152 152V192C152 244.8 195.2 288 248 288C300.8 288 344 244.8 344 192V152C344 147.2 347.2 144 352 144C356.8 144 360 147.2 360 152V192C360 254.4 310.4 304 248 304ZM448 512H48C43.2 512 40 508.8 40 504V433.6C40 395.2 64 361.6 100.8 350.4L190.4 320H196.8C198.4 321.6 200 323.2 200 326.4C203.2 350.4 224 366.4 248 366.4C272 366.4 291.2 348.8 296 326.4C296 324.8 297.6 321.6 299.2 320C300.8 318.4 304 318.4 305.6 320L395.2 350.4C432 361.6 456 395.2 456 433.6V504C456 508.8 452.8 512 448 512ZM56 496H440V433.6C440 403.2 420.8 374.4 390.4 364.8L308.8 337.6C300.8 364.8 276.8 382.4 248 382.4C219.2 382.4 195.2 363.2 187.2 337.6L105.6 364.8C76.8 374.4 56 401.6 56 433.6V496Z" fill="#40455A"/>
<path d="M448 512H352C347.2 512 344 508.8 344 504V488C344 435.2 384 390.4 435.2 385.6C438.4 385.6 441.6 387.2 443.2 388.8C451.2 403.2 456 417.6 456 433.6V504C456 508.8 452.8 512 448 512ZM360 496H440V433.6C440 422.4 436.8 411.2 432 401.6C390.4 409.6 360 444.8 360 488V496ZM144 512H48C43.2 512 40 508.8 40 504V433.6C40 417.6 44.8 401.6 52.8 388.8C54.4 385.6 57.6 384 60.8 384C113.6 390.4 152 435.2 152 486.4V502.4C152 508.8 148.8 512 144 512ZM56 496H136V488C136 444.8 105.6 409.6 64 401.6C59.2 411.2 56 422.4 56 433.6V496ZM352 160H344C331.2 160 320 148.8 320 136V104C320 99.2 316.8 96 312 96H184C179.2 96 176 99.2 176 104V136C176 148.8 164.8 160 152 160H144C140.8 160 137.6 156.8 136 153.6L118.4 86.4C113.6 68.8 118.4 52.8 128 38.4C137.6 24 156.8 16 172.8 16H176C180.8 16 185.6 17.6 188.8 20.8C196.8 8 209.6 0 224 0H304C326.4 0 347.2 9.6 360 27.2C372.8 44.8 379.2 67.2 374.4 88L360 153.6C358.4 156.8 355.2 160 352 160ZM184 80H312C324.8 80 336 91.2 336 104V136C336 140.8 339.2 144 344 144H345.6L358.4 84.8C361.6 68.8 358.4 51.2 347.2 38.4C337.6 24 321.6 16 304 16H224C211.2 16 200 27.2 200 40C200 44.8 196.8 48 192 48C187.2 48 184 44.8 184 40C184 35.2 180.8 32 176 32H172.8C160 32 148.8 38.4 140.8 48C132.8 57.6 131.2 70.4 134.4 81.6L150.4 144H152C156.8 144 160 140.8 160 136V104C160 91.2 171.2 80 184 80Z" fill="#40455A"/>
<path d="M384 208H352C347.2 208 344 204.8 344 200V152C344 147.2 347.2 144 352 144H368C380.8 144 392 155.2 392 168V200C392 204.8 388.8 208 384 208ZM360 192H376V168C376 163.2 372.8 160 368 160H360V192Z" fill="#40455A"/>
<path d="M336 256H288C283.2 256 280 252.8 280 248C280 243.2 283.2 240 288 240H336C358.4 240 376 222.4 376 200V168C376 163.2 379.2 160 384 160C388.8 160 392 163.2 392 168V200C392 230.4 366.4 256 336 256ZM144 208H128C115.2 208 104 196.8 104 184V168C104 155.2 115.2 144 128 144H144C148.8 144 152 147.2 152 152V200C152 204.8 148.8 208 144 208ZM128 160C123.2 160 120 163.2 120 168V184C120 188.8 123.2 192 128 192H136V160H128Z" fill="#40455A"/>
</svg>
