<svg width="40" height="40" viewBox="0 0 40 40" fill="none" xmlns="http://www.w3.org/2000/svg">
<rect width="40" height="40" rx="8" fill="#DAFFED"/>
<path d="M25 29.25H15C14.59 29.25 14.25 28.91 14.25 28.5C14.25 28.09 14.59 27.75 15 27.75H25C27.86 27.75 29.25 26.36 29.25 23.5V16.5C29.25 13.64 27.86 12.25 25 12.25H15C12.14 12.25 10.75 13.64 10.75 16.5C10.75 16.91 10.41 17.25 10 17.25C9.59 17.25 9.25 16.91 9.25 16.5C9.25 12.85 11.35 10.75 15 10.75H25C28.65 10.75 30.75 12.85 30.75 16.5V23.5C30.75 27.15 28.65 29.25 25 29.25Z" fill="#292D32"/>
<path d="M19.9998 20.87C19.1598 20.87 18.3098 20.61 17.6598 20.08L14.5298 17.58C14.2098 17.32 14.1498 16.85 14.4098 16.53C14.6698 16.21 15.1398 16.15 15.4598 16.41L18.5898 18.91C19.3498 19.52 20.6398 19.52 21.3998 18.91L24.5298 16.41C24.8498 16.15 25.3298 16.2 25.5798 16.53C25.8398 16.85 25.7898 17.33 25.4598 17.58L22.3298 20.08C21.6898 20.61 20.8398 20.87 19.9998 20.87Z" fill="#78C8A1"/>
<path d="M16 25.25H10C9.59 25.25 9.25 24.91 9.25 24.5C9.25 24.09 9.59 23.75 10 23.75H16C16.41 23.75 16.75 24.09 16.75 24.5C16.75 24.91 16.41 25.25 16 25.25Z" fill="#78C8A1"/>
<path d="M13 21.25H10C9.59 21.25 9.25 20.91 9.25 20.5C9.25 20.09 9.59 19.75 10 19.75H13C13.41 19.75 13.75 20.09 13.75 20.5C13.75 20.91 13.41 21.25 13 21.25Z" fill="#78C8A1"/>
</svg>
