<svg width="529" height="529" viewBox="0 0 529 529" fill="none" xmlns="http://www.w3.org/2000/svg">
<path d="M287.646 369.587L242.535 477.327C239.829 483.951 231.656 484.395 229.816 477.971L221.766 449.941C220.562 445.847 216.491 444.184 212.758 446.261L187.389 460.644C181.585 463.941 176.057 457.907 178.764 451.283L223.874 343.551L287.646 369.587Z" fill="#71C7E5"/>
<path d="M314.088 339.097L345.675 485.729C347.177 492.729 340.676 497.689 335.539 493.427L313.099 474.797C309.802 472.09 305.494 473.01 303.592 476.836L290.72 503.002C287.776 508.998 279.818 507.127 278.323 500.127L246.736 353.495L314.088 339.097Z" fill="#71C7E5"/>
<path d="M443.762 232.913C443.762 240.664 438.089 248.492 428.268 248.415H428.191C413.847 248.415 407.322 266.355 418.37 275.563C422.357 278.86 424.043 283.076 424.043 287.14C424.043 296.807 414.613 306.015 403.267 301.798C401.419 301.108 399.579 300.802 397.816 300.802C386.776 300.802 378.411 313.222 384.706 323.955C386.239 326.646 386.929 329.253 386.929 331.859C386.929 343.597 372.347 352.575 361.537 343.367C358.547 340.837 355.097 339.687 351.724 339.687C342.899 339.687 334.612 347.584 336.452 357.857C336.682 358.938 336.758 359.935 336.758 361.008C336.758 375.812 316.058 382.252 308.077 368.215C306.775 365.836 304.855 363.854 302.519 362.477C300.183 361.1 297.518 360.381 294.806 360.395C287.906 360.395 281.006 364.995 279.619 373.198C278.162 381.716 271.339 386.017 264.515 386.017C257.608 386.017 250.777 381.723 249.32 373.206C247.94 365.002 241.04 360.402 234.14 360.402C229.003 360.402 223.859 362.932 220.869 368.222C217.802 373.666 212.819 375.966 207.828 375.966C199.088 375.966 190.494 368.682 192.487 357.865C192.64 356.868 192.717 355.948 192.717 355.028C192.717 342.447 177.614 334.704 167.402 343.375C164.258 346.058 160.885 347.131 157.588 347.131C146.932 347.131 137.571 335.317 144.248 323.963C145.782 321.433 146.395 318.749 146.395 316.219C146.395 306.322 136.421 297.804 125.68 301.798C123.763 302.488 121.846 302.872 120.083 302.872C106.889 302.872 98.8387 285.307 110.576 275.563C114.41 272.343 116.096 268.126 116.096 263.91C116.096 256.005 110.116 248.339 100.679 248.415H100.525C83.421 248.415 79.1967 224.48 95.3887 218.653C102.212 216.2 105.585 210.22 105.585 204.24C105.585 198.176 102.212 192.111 95.3887 189.735C88.4043 187.205 85.1843 181.378 85.1843 175.475C85.1843 167.724 90.8577 159.896 100.671 159.973H100.748C115.092 159.973 121.616 142.033 110.569 132.825C106.582 129.528 104.895 125.312 104.895 121.248C104.895 111.581 114.325 102.373 125.68 106.59C127.52 107.28 129.36 107.586 131.123 107.586C142.171 107.586 150.535 95.1663 144.241 84.433C142.707 81.742 142.017 79.1353 142.017 76.5287C142.017 64.791 156.584 55.8133 167.402 65.021C170.392 67.551 173.842 68.701 177.223 68.701C186.039 68.701 194.327 60.8043 192.479 50.531C192.257 49.4577 192.173 48.4533 192.173 47.38C192.173 32.5833 212.888 26.1357 220.869 40.1733C223.859 45.4633 228.996 47.9933 234.132 47.9933C241.032 47.9933 247.94 43.3933 249.32 35.19C250.777 26.6723 257.6 22.448 264.508 22.448C271.331 22.448 278.154 26.6647 279.619 35.1823C281.995 49.3733 300.94 52.7467 308.077 40.1657C311.144 34.7223 316.127 32.4223 321.111 32.4223C329.851 32.4223 338.445 39.7057 336.452 50.5233C336.298 51.52 336.222 52.44 336.222 53.36C336.222 65.941 351.333 73.6843 361.537 65.0133C364.68 62.33 368.054 61.2567 371.35 61.2567C382.007 61.2567 391.368 73.071 384.698 84.4253C383.165 86.9553 382.551 89.6387 382.551 92.1687C382.551 102.066 392.518 110.584 403.259 106.59C405.176 105.9 407.092 105.516 408.856 105.516C422.05 105.516 430.108 123.081 418.37 132.825C414.537 136.045 412.85 140.262 412.85 144.478C412.85 152.383 418.83 160.049 428.26 159.973H428.413C445.525 159.973 449.742 183.908 433.55 189.735C426.803 192.111 423.353 198.168 423.353 204.232C423.353 210.212 426.803 216.192 433.55 218.646C440.534 221.183 443.762 227.01 443.762 232.921V232.913Z" fill="#FFCA78"/>
<path d="M399.28 204.232C399.28 278.676 338.913 339.089 264.469 339.089C190.026 339.089 129.666 278.676 129.666 204.232C129.666 129.789 190.026 69.4293 264.469 69.4293C338.913 69.4293 399.28 129.789 399.28 204.232Z" fill="#EFEFEF"/>
<path d="M155.342 186.729L263.879 295.673L373.597 186.729L308.714 206.793H219.834L155.342 186.729Z" fill="#9DE0EE"/>
<path d="M155.342 186.729L202.929 145.651H326.017L373.597 186.729L308.714 206.793H219.834L155.342 186.729Z" fill="#9DE0EE"/>
<path d="M263.879 295.673L308.714 206.793L264.469 145.651L219.834 206.793L263.879 295.673Z" fill="#9DE0EE"/>
<path d="M329.981 412.467C329.489 412.572 329.022 412.774 328.607 413.06C328.193 413.346 327.839 413.711 327.566 414.134C327.292 414.557 327.105 415.029 327.014 415.525C326.923 416.02 326.931 416.528 327.037 417.021L330.87 434.884C331.083 435.878 331.682 436.747 332.535 437.3C333.388 437.853 334.426 438.044 335.421 437.832C336.415 437.619 337.284 437.021 337.837 436.167C338.39 435.314 338.581 434.276 338.368 433.282L334.535 415.418C334.32 414.425 333.72 413.556 332.867 413.003C332.014 412.45 330.976 412.257 329.981 412.467Z" fill="#414141"/>
<path d="M434.899 215.081C424.396 211.247 424.779 196.88 434.823 193.307C454.971 186.101 450.003 156.124 428.153 156.124C417.458 156.124 412.536 142.746 420.793 135.807C437.031 122.276 422.939 95.772 401.933 102.994C392.158 106.643 382.421 95.8717 387.979 86.3573C399.004 67.8193 375.191 48.07 359.076 62.1307C351.026 68.7393 338.936 62.6903 340.216 51.244C344.126 29.9613 315.368 19.7647 304.719 38.2873C299.391 47.748 285.123 45.1107 283.406 34.5307C279.68 13.2403 249.236 13.3477 245.533 34.5307C243.785 45.264 229.471 47.817 224.219 38.2873C213.448 19.32 184.299 30.567 188.723 51.1673C190.655 62.0387 177.851 68.8773 169.863 62.1307C157.136 51.037 138.199 60.8427 138.199 76.544C138.199 86.434 146.019 89.0023 141.036 97.8573C135.24 107.878 125.641 101.691 120.029 101.691C102.833 101.691 93.9704 124.231 108.146 135.807C116.319 142.592 111.688 156.124 100.556 156.124C79.4421 156.124 73.6307 185.825 94.1161 193.384C104.175 196.78 104.497 211.24 94.1161 215.081C73.9834 222.272 78.8747 252.264 100.863 252.264C111.443 252.264 116.403 265.635 108.146 272.581C91.9464 286.074 105.953 312.631 127.006 305.394C136.988 301.66 146.518 312.892 140.959 322.031C132.84 335.662 143.712 350.934 157.596 350.934C168.092 350.934 169.663 343.497 177.223 343.497C183.241 343.497 189.673 348.534 188.723 357.144C186.576 368.797 194.48 377.867 204.593 379.531L175.229 449.834C173.619 453.667 174.003 457.884 176.073 461.027C186.553 476.476 215.479 441.845 218.086 450.984L226.136 479.044C229.08 489.087 242.121 488.673 246.069 478.814L261.786 441.324C274.996 492.384 270.725 510.401 285.399 510.401C295.167 510.401 295.343 499.284 307.019 478.584C307.403 477.817 307.939 477.281 308.629 477.127C309.243 476.974 310.009 477.204 310.623 477.741L333.086 496.371C336.536 499.207 340.906 499.667 344.586 497.444C348.573 494.991 350.489 490.007 349.416 484.947L342.209 451.137C341.993 450.153 341.395 449.294 340.548 448.749C339.701 448.203 338.672 448.014 337.686 448.224C335.616 448.607 334.236 450.677 334.696 452.747L341.903 486.557C342.363 488.704 341.596 490.314 340.599 490.927C339.756 491.387 338.913 491.234 337.993 490.467L315.529 471.837C312.999 469.767 309.933 469.001 307.019 469.614C304.106 470.227 301.576 472.297 300.119 475.134C278.668 517.324 287.699 518.811 266.923 428.981L258.259 388.884C269.161 392.518 281.413 386.124 283.406 373.857C284.387 367.686 289.677 364.197 294.829 364.197C306.398 364.197 304.06 378.151 318.979 379.684C323.02 393.415 321.402 403.566 327.796 402.147C334.098 400.974 328.486 391.997 326.646 378.994C336.59 376.119 342.24 366.674 340.216 357.221C338.284 346.365 351.149 339.564 359.076 346.257C374.977 360.134 398.958 341.251 387.979 322.031C382.467 312.585 392.035 301.752 401.933 305.394C422.472 312.923 437.261 286.105 420.793 272.657C412.62 265.727 417.258 252.264 428.383 252.264C449.619 252.264 455.346 222.494 434.899 215.081ZM258.949 428.291L239.016 475.901C237.329 479.964 234.186 479.351 233.496 476.897C225.998 456.565 227.899 441.554 216.016 441.554C207.774 441.554 176.816 467.567 182.283 452.747L213.179 379.071C217.779 377.767 221.689 374.624 224.219 370.101C229.463 360.571 243.785 363.124 245.533 373.857C246.069 377.231 247.373 380.067 249.059 382.291L258.949 428.291ZM428.229 244.597C410.266 244.597 402.063 267.099 415.963 278.484C425.791 286.818 416.898 302.711 404.616 298.187C395.953 294.967 385.909 298.647 381.233 306.774C374.356 318.956 383.073 325.281 383.073 331.844C383.073 340.431 372.454 347.484 363.983 340.431C350.589 329.092 329.375 340.63 332.703 358.677C335.309 370.446 318.351 378.051 311.389 366.344C302.849 351.164 279.557 353.863 275.816 372.554C273.6 385.403 255.346 385.511 253.123 372.554C252.481 368.638 250.636 365.018 247.844 362.197C245.052 359.376 241.452 357.494 237.542 356.812C233.633 356.129 229.607 356.68 226.025 358.388C222.443 360.096 219.48 362.877 217.549 366.344C211.355 377.384 193.89 371.626 196.313 358.447C198.697 339.357 177.989 329.375 164.956 340.431C155.449 348.519 140.791 337.203 147.553 325.941C156.431 311.267 142.04 291.878 124.399 298.187C111.696 302.78 103.224 286.611 113.053 278.484C126.584 267.275 119.017 244.597 100.556 244.597C87.6837 244.597 84.6017 226.558 96.7227 222.287C113.988 215.893 113.359 191.927 96.7227 186.101C84.5327 181.807 87.5917 163.791 100.786 163.791C118.734 163.791 126.776 141.281 113.053 129.904C103.201 121.731 111.903 105.624 124.323 110.201C140.806 116.38 156.799 98.2023 147.553 82.524C141.174 71.4687 154.652 59.3707 164.956 67.9573C178.35 79.2887 199.556 67.7503 196.236 49.7107C194.626 42.5117 200.644 36.2173 207.813 36.2173C219.405 36.2173 217.496 51.8573 234.109 51.8573C243.693 51.8573 251.513 45.264 253.123 35.834C255.193 23.1533 273.708 22.9463 275.816 35.834C278.875 53.7433 302.626 57.615 311.389 42.044C317.469 31.1957 335.11 36.777 332.703 49.9407C329.444 67.3057 349.922 79.6797 364.059 67.9573C369.656 63.1273 378.166 65.044 381.693 71.254C386.53 79.649 378.703 82.1407 378.703 92.184C378.703 105.371 392.273 115.015 404.539 110.201C412.589 107.287 417.803 112.347 419.489 117.254C424.005 129.574 408.986 129.36 408.986 144.471C408.986 153.977 416.193 163.791 428.383 163.791C441.362 163.791 444.368 181.792 432.293 186.101C415.518 192.081 414.966 215.901 432.216 222.287C444.59 226.634 441.301 244.597 428.229 244.597Z" fill="#414141"/>
<path d="M264.469 65.5807C188.033 65.5807 125.856 127.757 125.856 204.271C125.856 280.707 188.033 342.961 264.469 342.961C340.661 342.961 403.083 280.907 403.083 204.271C403.083 127.757 340.906 65.5807 264.469 65.5807ZM264.469 335.294C192.249 335.294 133.523 276.491 133.523 204.271C133.523 132.051 192.249 73.2473 264.469 73.2473C336.689 73.2473 395.416 132.051 395.416 204.271C395.416 276.491 336.689 335.294 264.469 335.294Z" fill="#414141"/>
<path d="M326.033 141.864H202.906C201.986 141.864 201.143 142.171 200.453 142.784L152.843 183.801C151.355 185.28 151.302 187.358 151.846 188.171C152.084 188.891 152.705 189.551 152.766 189.551L261.096 298.264C261.863 298.67 264.078 300.947 266.616 298.417L376.403 189.397C377.675 187.803 377.89 185.595 376.096 183.801L328.486 142.784C327.812 142.182 326.937 141.853 326.033 141.864ZM302.496 210.634L263.933 287.071L225.983 210.634H302.496ZM227.363 202.967L264.469 152.214L301.193 202.967H227.363ZM204.363 149.531H256.956L218.393 202.354L163.039 185.104L204.363 149.531ZM169.019 194.994L217.166 210.021L250.056 276.414L169.019 194.994ZM277.886 276.414L311.466 210.021L359.843 194.994L277.886 276.414ZM310.239 202.354L272.059 149.531H324.576L365.823 185.104L310.239 202.354Z" fill="#414141"/>
</svg>
