<svg width="40" height="40" viewBox="0 0 40 40" fill="none" xmlns="http://www.w3.org/2000/svg">
<rect width="40" height="40" rx="8" fill="#DAFFED"/>
<path d="M24 30.75H16C12.35 30.75 10.25 28.65 10.25 25V15C10.25 11.35 12.35 9.25 16 9.25H24C27.65 9.25 29.75 11.35 29.75 15V25C29.75 28.65 27.65 30.75 24 30.75ZM16 10.75C13.14 10.75 11.75 12.14 11.75 15V25C11.75 27.86 13.14 29.25 16 29.25H24C26.86 29.25 28.25 27.86 28.25 25V15C28.25 12.14 26.86 10.75 24 10.75H16Z" fill="#292D32"/>
<path d="M26.5 17.25H24.5C22.98 17.25 21.75 16.02 21.75 14.5V12.5C21.75 12.09 22.09 11.75 22.5 11.75C22.91 11.75 23.25 12.09 23.25 12.5V14.5C23.25 15.19 23.81 15.75 24.5 15.75H26.5C26.91 15.75 27.25 16.09 27.25 16.5C27.25 16.91 26.91 17.25 26.5 17.25Z" fill="#78C8A1"/>
<path d="M20 21.75H16C15.59 21.75 15.25 21.41 15.25 21C15.25 20.59 15.59 20.25 16 20.25H20C20.41 20.25 20.75 20.59 20.75 21C20.75 21.41 20.41 21.75 20 21.75Z" fill="#78C8A1"/>
<path d="M24 25.75H16C15.59 25.75 15.25 25.41 15.25 25C15.25 24.59 15.59 24.25 16 24.25H24C24.41 24.25 24.75 24.59 24.75 25C24.75 25.41 24.41 25.75 24 25.75Z" fill="#78C8A1"/>
</svg>
