<svg width="512" height="512" viewBox="0 0 512 512" fill="none" xmlns="http://www.w3.org/2000/svg">
<path d="M362.453 490.56C433.264 490.56 490.667 433.157 490.667 362.347C490.667 291.536 433.264 234.133 362.453 234.133C291.643 234.133 234.24 291.536 234.24 362.347C234.24 433.157 291.643 490.56 362.453 490.56Z" fill="#E1F2FB"/>
<path d="M368 309.333C360.078 309.333 352.334 306.984 345.748 302.583C339.161 298.182 334.027 291.927 330.996 284.608C327.964 277.289 327.171 269.236 328.716 261.466C330.262 253.696 334.076 246.56 339.678 240.958C345.28 235.356 352.416 231.542 360.186 229.996C367.956 228.451 376.009 229.244 383.328 232.276C390.647 235.307 396.902 240.441 401.303 247.028C405.704 253.614 408.053 261.358 408.053 269.28C408.053 279.903 403.833 290.091 396.322 297.602C388.811 305.113 378.623 309.333 368 309.333ZM368 250.667C364.298 250.667 360.678 251.765 357.6 253.822C354.521 255.879 352.122 258.802 350.705 262.223C349.288 265.643 348.917 269.407 349.64 273.039C350.362 276.67 352.145 280.006 354.763 282.624C357.381 285.242 360.717 287.025 364.348 287.747C367.979 288.469 371.743 288.099 375.164 286.682C378.584 285.265 381.508 282.865 383.565 279.787C385.622 276.708 386.72 273.089 386.72 269.387C386.72 264.422 384.748 259.66 381.237 256.15C377.726 252.639 372.965 250.667 368 250.667Z" fill="#40E0D0"/>
<path d="M427.467 210.773C425.869 210.772 424.292 210.412 422.852 209.72C421.411 209.028 420.145 208.021 419.147 206.773C417.716 204.989 416.898 202.791 416.811 200.506C416.725 198.22 417.375 195.968 418.667 194.08C418.667 189.707 418.667 185.227 418.08 180.693C417.471 173.518 416.385 166.391 414.827 159.36C414.449 157.969 414.357 156.515 414.557 155.088C414.757 153.66 415.244 152.288 415.99 151.053C416.735 149.819 417.722 148.749 418.892 147.907C420.063 147.065 421.392 146.47 422.799 146.156C424.206 145.842 425.662 145.816 427.079 146.081C428.496 146.346 429.845 146.895 431.044 147.695C432.243 148.496 433.267 149.531 434.055 150.738C434.842 151.946 435.377 153.3 435.627 154.72C437.411 162.732 438.641 170.858 439.307 179.04C439.887 185.868 440.101 192.722 439.947 199.573C439.464 202.592 437.963 205.355 435.692 207.402C433.422 209.449 430.519 210.658 427.467 210.827V210.773Z" fill="#192965"/>
<path d="M237.707 421.333H162.667C159.838 421.333 157.125 420.21 155.124 418.209C153.124 416.209 152 413.496 152 410.667V372.32C151.9 364.641 150.187 357.069 146.971 350.095C143.755 343.121 139.109 336.902 133.333 331.84C111.737 312.512 95.0121 288.356 84.5206 261.339C74.0292 234.322 70.068 205.209 72.9599 176.372C75.8519 147.534 85.515 119.788 101.162 95.3921C116.809 70.9967 137.998 50.6426 163.002 35.9877C188.006 21.3329 216.119 12.7918 245.049 11.0604C273.98 9.32891 302.91 14.456 329.484 26.024C356.057 37.592 379.522 55.2737 397.967 77.6287C416.412 99.9837 429.316 126.38 435.627 154.667C436.004 156.058 436.096 157.511 435.896 158.939C435.696 160.367 435.209 161.739 434.464 162.973C433.719 164.207 432.731 165.278 431.561 166.119C430.391 166.961 429.062 167.557 427.655 167.871C426.248 168.185 424.792 168.21 423.375 167.946C421.957 167.681 420.609 167.132 419.41 166.331C418.211 165.531 417.186 164.496 416.399 163.288C415.611 162.081 415.076 160.727 414.827 159.307C407.108 125.175 388.634 94.4246 362.124 71.5827C335.615 48.7408 302.471 35.015 267.573 32.4267C245.241 30.7354 222.801 33.7125 201.682 41.1685C180.563 48.6244 161.227 60.3958 144.907 75.7333C128.422 91.1548 115.327 109.837 106.453 130.593C97.5789 151.349 93.1205 173.725 93.3613 196.297C93.6021 218.869 98.5367 241.144 107.851 261.706C117.166 282.268 130.657 300.667 147.467 315.733C155.524 322.809 161.993 331.508 166.451 341.261C170.909 351.013 173.255 361.597 173.333 372.32V400H237.707C240.536 400 243.249 401.124 245.249 403.124C247.25 405.125 248.373 407.838 248.373 410.667C248.373 413.496 247.25 416.209 245.249 418.209C243.249 420.21 240.536 421.333 237.707 421.333Z" fill="#192965"/>
<path d="M345.76 372.693C344.501 372.688 343.247 372.527 342.027 372.213C329.591 369.041 317.842 363.618 307.36 356.213C304.538 354.225 302.475 351.338 301.506 348.025C300.537 344.712 300.721 341.169 302.027 337.973L310.4 318.293L309.493 317.173L290.293 322.827C286.841 323.885 283.124 323.67 279.817 322.222C276.509 320.774 273.831 318.188 272.267 314.933C266.68 303.357 263.298 290.841 262.293 278.027C262.021 274.589 262.93 271.162 264.869 268.311C266.809 265.46 269.663 263.356 272.96 262.347L292.48 256.587L292.96 253.333L277.333 242.667C274.302 240.666 272.094 237.639 271.115 234.142C270.135 230.644 270.45 226.911 272 223.627C277.502 212.012 285.116 201.523 294.453 192.693C296.956 190.305 300.206 188.852 303.655 188.58C307.103 188.308 310.541 189.233 313.387 191.2L327.253 200.693C331.284 198.001 335.55 195.68 340 193.76V179.52C340.009 175.893 341.316 172.389 343.683 169.64C346.049 166.892 349.321 165.081 352.907 164.533C365.685 162.741 378.685 163.32 391.253 166.24C394.558 167.033 397.498 168.917 399.599 171.588C401.699 174.26 402.836 177.562 402.827 180.96V193.973C406.002 195.334 409.084 196.902 412.053 198.667L420.64 192C422.466 190.458 424.647 189.395 426.987 188.907C429.397 188.32 431.916 188.35 434.311 188.993C436.706 189.636 438.901 190.872 440.693 192.587C450.041 201.37 457.689 211.802 463.253 223.36C464.707 226.404 465.103 229.846 464.378 233.141C463.654 236.435 461.85 239.393 459.253 241.547L449.547 249.44C450.288 252.604 450.84 255.81 451.2 259.04L461.547 261.12C465.161 261.852 468.379 263.887 470.592 266.836C472.804 269.786 473.856 273.446 473.547 277.12C472.723 290.051 469.485 302.714 464 314.453C462.533 317.519 460.081 320.004 457.036 321.512C453.99 323.02 450.527 323.464 447.2 322.773L432.373 319.733C431.04 321.333 429.547 322.88 428.053 324.427L434.4 336C436.077 339.21 436.553 342.914 435.741 346.444C434.93 349.974 432.884 353.098 429.973 355.253C419.569 362.8 407.876 368.385 395.467 371.733C392.136 372.609 388.607 372.319 385.464 370.913C382.32 369.506 379.753 367.067 378.187 364L369.28 347.093H366.453C364.664 350.335 363.25 353.771 362.24 357.333C362.127 357.776 361.967 358.206 361.76 358.613L359.68 363.573C358.509 366.29 356.565 368.604 354.091 370.225C351.616 371.847 348.719 372.705 345.76 372.693ZM323.84 341.653C329.56 345.17 335.685 347.982 342.08 350.027C343.515 345.405 345.409 340.938 347.733 336.693L348.693 334.453C349.974 331.469 352.178 328.973 354.98 327.332C357.783 325.691 361.037 324.99 364.267 325.333C366.761 325.653 369.272 325.813 371.787 325.813H375.68C377.624 325.814 379.531 326.346 381.195 327.352C382.859 328.357 384.216 329.799 385.12 331.52L394.667 349.707C401.061 347.563 407.169 344.643 412.853 341.013L406.933 329.76C405.355 326.702 404.865 323.198 405.543 319.825C406.222 316.451 408.029 313.409 410.667 311.2C413.407 308.836 415.892 306.19 418.08 303.307C419.809 301.094 422.107 299.395 424.729 298.389C427.35 297.384 430.195 297.111 432.96 297.6L446.88 300.427C449.43 294.138 451.22 287.567 452.213 280.853L439.36 278.293C436.905 277.806 434.699 276.47 433.129 274.52C431.559 272.57 430.725 270.13 430.773 267.627C430.807 262.055 430.053 256.507 428.533 251.147C427.671 248.308 427.66 245.278 428.504 242.434C429.348 239.59 431.009 237.056 433.28 235.147L442.24 227.84C438.936 222.06 434.962 216.689 430.4 211.84L422.4 218.027C419.877 220.126 416.731 221.332 413.451 221.457C410.172 221.583 406.943 220.62 404.267 218.72C400.372 216.105 396.183 213.957 391.787 212.32C388.89 211.271 386.386 209.359 384.612 206.841C382.838 204.322 381.879 201.32 381.867 198.24V186.027C375.208 184.91 368.441 184.588 361.707 185.067V198.187C361.747 201.263 360.837 204.277 359.099 206.817C357.362 209.356 354.882 211.297 352 212.373C346.652 214.389 341.608 217.135 337.013 220.533C334.469 222.438 331.39 223.493 328.212 223.551C325.034 223.608 321.919 222.664 319.307 220.853L306.24 211.947C301.617 216.875 297.623 222.357 294.347 228.267L308.96 238.24C311.462 239.991 313.383 242.45 314.475 245.301C315.568 248.153 315.784 251.265 315.093 254.24C314.42 256.99 313.974 259.79 313.76 262.613C313.562 265.728 312.39 268.702 310.408 271.114C308.427 273.526 305.737 275.254 302.72 276.053L284.48 281.387C285.465 288.067 287.256 294.604 289.813 300.853L308.053 295.52C311.067 294.666 314.271 294.761 317.229 295.792C320.187 296.822 322.756 298.738 324.587 301.28C326.044 303.285 327.611 305.208 329.28 307.04C331.24 309.153 332.549 311.786 333.05 314.624C333.551 317.461 333.224 320.384 332.107 323.04L323.84 341.653Z" fill="#40E0D0"/>
<path d="M349.333 421.333H273.013C270.184 421.333 267.471 420.209 265.471 418.209C263.471 416.209 262.347 413.496 262.347 410.667C262.347 407.838 263.471 405.125 265.471 403.124C267.471 401.124 270.184 400 273.013 400H338.667V396.213C338.667 393.384 339.791 390.671 341.791 388.671C343.791 386.67 346.504 385.547 349.333 385.547C352.162 385.547 354.875 386.67 356.876 388.671C358.876 390.671 360 393.384 360 396.213V410.667C360 413.496 358.876 416.209 356.876 418.209C354.875 420.209 352.162 421.333 349.333 421.333ZM317.333 501.333H194.667C189.009 501.333 183.583 499.086 179.582 495.085C175.581 491.084 173.333 485.658 173.333 480V453.333C173.333 450.504 174.457 447.791 176.458 445.791C178.458 443.79 181.171 442.667 184 442.667H328C330.829 442.667 333.542 443.79 335.543 445.791C337.543 447.791 338.667 450.504 338.667 453.333C338.667 456.162 337.543 458.875 335.543 460.876C333.542 462.876 330.829 464 328 464H194.667V480H317.333C317.333 477.171 318.457 474.458 320.458 472.457C322.458 470.457 325.171 469.333 328 469.333C330.829 469.333 333.542 470.457 335.543 472.457C337.543 474.458 338.667 477.171 338.667 480C338.667 485.658 336.419 491.084 332.418 495.085C328.418 499.086 322.991 501.333 317.333 501.333Z" fill="#192965"/>
<path d="M237.707 421.333C234.878 421.333 232.165 420.209 230.164 418.209C228.164 416.209 227.04 413.496 227.04 410.667V365.867L155.84 286.507C154.081 284.542 153.112 281.996 153.12 279.36V250.24C153.12 247.411 154.244 244.698 156.244 242.697C158.245 240.697 160.958 239.573 163.787 239.573C166.616 239.573 169.329 240.697 171.329 242.697C173.33 244.698 174.453 247.411 174.453 250.24V275.253L245.653 354.613C247.412 356.577 248.381 359.123 248.373 361.76V410.667C248.373 413.496 247.25 416.209 245.249 418.209C243.249 420.209 240.536 421.333 237.707 421.333Z" fill="#40E0D0"/>
<path d="M338.667 464H173.333C167.675 464 162.249 461.752 158.248 457.752C154.248 453.751 152 448.325 152 442.667V435.627C152 432.798 153.124 430.085 155.124 428.084C157.125 426.084 159.838 424.96 162.667 424.96C165.496 424.96 168.209 426.084 170.209 428.084C172.21 430.085 173.333 432.798 173.333 435.627V442.667H338.667V421.333H280C277.171 421.333 274.458 420.21 272.458 418.209C270.457 416.209 269.333 413.496 269.333 410.667C269.333 407.838 270.457 405.125 272.458 403.124C274.458 401.124 277.171 400 280 400H349.333C352.162 400 354.875 401.124 356.876 403.124C358.876 405.125 360 407.838 360 410.667V442.667C360 448.325 357.752 453.751 353.752 457.752C349.751 461.752 344.325 464 338.667 464Z" fill="#192965"/>
<path d="M237.707 421.333H162.72C159.891 421.333 157.178 420.21 155.178 418.209C153.177 416.209 152.053 413.496 152.053 410.667C152.053 407.838 153.177 405.125 155.178 403.124C157.178 401.124 159.891 400 162.72 400H237.707C240.536 400 243.249 401.124 245.249 403.124C247.25 405.125 248.373 407.838 248.373 410.667C248.373 413.496 247.25 416.209 245.249 418.209C243.249 420.21 240.536 421.333 237.707 421.333Z" fill="#192965"/>
<path d="M165.76 226.667C158.954 226.667 152.301 224.648 146.643 220.865C140.985 217.083 136.576 211.707 133.974 205.419C131.371 199.13 130.693 192.21 132.025 185.536C133.357 178.862 136.638 172.732 141.455 167.923C146.271 163.115 152.405 159.842 159.082 158.521C165.758 157.2 172.677 157.889 178.961 160.501C185.246 163.112 190.615 167.53 194.389 173.194C198.162 178.858 200.171 185.514 200.16 192.32C200.146 201.434 196.515 210.17 190.066 216.61C183.616 223.05 174.874 226.667 165.76 226.667ZM165.76 179.253C162.856 179.241 160.03 180.192 157.725 181.957C155.419 183.723 153.765 186.204 153.021 189.011C152.277 191.818 152.485 194.792 153.612 197.468C154.74 200.144 156.724 202.37 159.252 203.798C161.781 205.226 164.712 205.774 167.586 205.357C170.459 204.941 173.114 203.582 175.133 201.495C177.152 199.408 178.421 196.71 178.742 193.824C179.063 190.938 178.418 188.027 176.907 185.547C175.753 183.622 174.119 182.031 172.165 180.928C170.211 179.825 168.004 179.248 165.76 179.253ZM273.013 156.587C266.205 156.597 259.547 154.587 253.882 150.811C248.217 147.036 243.799 141.664 241.189 135.376C238.579 129.088 237.893 122.167 239.218 115.489C240.544 108.811 243.821 102.676 248.636 97.8622C253.45 93.0481 259.584 89.7707 266.262 88.4451C272.94 87.1195 279.861 87.8052 286.149 90.4154C292.437 93.0257 297.809 97.4431 301.585 103.108C305.361 108.774 307.371 115.432 307.36 122.24C307.346 131.345 303.723 140.073 297.285 146.511C290.846 152.949 282.118 156.573 273.013 156.587ZM273.013 109.173C270.427 109.163 267.895 109.92 265.739 111.349C263.584 112.779 261.901 114.816 260.903 117.203C259.906 119.589 259.64 122.218 260.138 124.756C260.636 127.295 261.876 129.628 263.702 131.461C265.527 133.293 267.855 134.543 270.391 135.052C272.927 135.56 275.557 135.304 277.948 134.317C280.339 133.33 282.383 131.655 283.821 129.505C285.259 127.355 286.027 124.827 286.027 122.24C286.027 118.784 284.657 115.468 282.218 113.019C279.78 110.57 276.47 109.187 273.013 109.173Z" fill="#40E0D0"/>
<path d="M229.333 304.427C226.504 304.427 223.791 303.303 221.791 301.302C219.791 299.302 218.667 296.589 218.667 293.76V199.2C218.667 197.544 219.052 195.911 219.793 194.43C220.533 192.949 221.609 191.66 222.933 190.667L262.827 160.907V145.92C262.827 143.091 263.951 140.378 265.951 138.377C267.951 136.377 270.664 135.253 273.493 135.253C276.322 135.253 279.035 136.377 281.036 138.377C283.036 140.378 284.16 143.091 284.16 145.92V166.24C284.16 167.896 283.775 169.529 283.034 171.01C282.293 172.491 281.218 173.78 279.893 174.773L240 204.533V293.76C240 296.589 238.876 299.302 236.876 301.302C234.876 303.303 232.162 304.427 229.333 304.427Z" fill="#40E0D0"/>
</svg>
