<svg width="512" height="512" viewBox="0 0 512 512" fill="none" xmlns="http://www.w3.org/2000/svg">
<path fill-rule="evenodd" clip-rule="evenodd" d="M255.67 487.391C143.943 465.648 65.9463 376.579 65.9463 261.693V104.074C138.203 96.5187 201.703 74.4739 255.68 23.97C309.658 74.4739 373.156 96.5187 445.415 104.074V261.693C445.415 376.577 367.42 465.646 255.695 487.389L255.67 487.391Z" fill="#C6CED2"/>
<path fill-rule="evenodd" clip-rule="evenodd" d="M255.67 451.956C161.031 433.539 94.9617 358.091 94.9617 260.773V127.258C156.17 120.859 209.956 102.185 255.68 59.4054C301.403 102.185 355.19 120.859 416.4 127.258L416.398 260.773C416.398 358.089 350.333 433.536 255.693 451.956H255.67Z" fill="#E9EBEC"/>
<path fill-rule="evenodd" clip-rule="evenodd" d="M255.68 205.053C272.313 189.45 305.578 189.45 322.211 204.9C338.844 220.35 338.844 251.25 322.211 282.15C310.567 305.325 280.63 328.501 255.68 343.951C230.732 328.501 200.792 305.325 189.151 282.15C172.517 251.25 172.517 220.35 189.151 204.9C205.782 189.45 239.048 189.45 255.68 205.053Z" fill="#FE7C7C"/>
<path fill-rule="evenodd" clip-rule="evenodd" d="M422.392 127.3C422.404 125.17 421.28 123.102 419.284 122.006L416.4 133.25L410.407 127.298L410.405 260.773C410.405 355.119 346.3 428.216 254.548 446.073C251.302 446.706 249.179 449.854 249.812 453.101C250.443 456.347 253.591 458.47 256.838 457.837C354.365 438.857 422.39 361.06 422.39 260.773L422.392 127.3Z" fill="#1C3D57"/>
<path fill-rule="evenodd" clip-rule="evenodd" d="M256.815 446.075C165.063 428.218 100.954 355.121 100.954 260.773V132.623C159.474 125.768 211.209 107.386 255.682 67.5284C301.507 108.602 355.046 126.869 415.776 133.218C419.065 133.563 422.014 131.172 422.36 127.881C422.703 124.592 420.312 121.641 417.023 121.298C357.152 115.039 304.498 96.8754 259.774 55.0295C257.471 52.8741 253.891 52.8741 251.586 55.0295C206.861 96.8754 154.208 115.039 94.3383 121.298C91.2874 121.616 88.969 124.19 88.969 127.258V260.773C88.969 361.06 156.996 438.859 254.527 457.837C257.774 458.47 260.92 456.347 261.553 453.101C262.184 449.854 260.061 446.706 256.815 446.075ZM451.407 104.122C451.421 101.99 450.297 99.9186 448.299 98.8218L445.415 110.067L439.422 104.12V261.693C439.422 373.608 363.388 460.326 254.55 481.508C251.304 482.139 249.183 485.288 249.814 488.534C250.445 491.781 253.593 493.904 256.84 493.273C371.453 470.965 451.407 379.547 451.407 261.693V104.122Z" fill="#1C3D57"/>
<path fill-rule="evenodd" clip-rule="evenodd" d="M256.815 481.508C147.976 460.328 71.9389 373.608 71.9389 261.693V109.443C141.504 101.43 202.95 79.6706 255.682 32.1064C309.764 80.8922 373.014 102.528 444.792 110.034C448.081 110.377 451.032 107.986 451.375 104.697C451.718 101.407 449.327 98.4574 446.038 98.1142C375.118 90.6988 312.753 69.1641 259.774 19.5941C257.471 17.4387 253.891 17.4387 251.586 19.5941C198.608 69.1641 136.244 90.6988 65.3231 98.1142C62.2722 98.4325 59.9539 101.004 59.9539 104.074V261.693C59.9539 379.549 139.908 470.969 254.525 493.273C257.772 493.906 260.921 491.783 261.551 488.536C262.184 485.29 260.061 482.141 256.815 481.508Z" fill="#1C3D57"/>
<path fill-rule="evenodd" clip-rule="evenodd" d="M255.68 197.31C246.592 190.746 234.529 187.358 222.425 187.338C208.395 187.317 194.424 191.822 185.072 200.51C166.883 217.404 165.683 251.183 183.864 284.973C195.921 308.897 226.712 333.059 252.525 349.044C254.458 350.243 256.901 350.243 258.834 349.044C284.666 333.047 315.482 308.863 327.551 284.868C345.677 251.147 344.467 217.395 326.29 200.51C316.936 191.822 302.964 187.317 288.937 187.338C276.831 187.358 264.769 190.746 255.68 197.31ZM251.58 209.423C253.885 211.586 257.475 211.586 259.78 209.423C267.059 202.595 278.035 199.341 288.954 199.323C299.875 199.308 310.851 202.528 318.132 209.291C323.81 214.564 327.109 221.999 328.244 230.647C330.104 244.809 326.23 262.04 316.934 279.31C316.907 279.36 316.88 279.41 316.855 279.46C306.117 300.837 279.069 322.035 255.682 336.877C232.291 322.035 205.245 300.837 194.504 279.46C194.479 279.41 194.453 279.36 194.426 279.31C185.131 262.04 181.258 244.809 183.116 230.647C184.251 221.999 187.551 214.564 193.227 209.291C200.508 202.528 211.485 199.308 222.405 199.323C233.324 199.341 244.301 202.595 251.58 209.423Z" fill="#1C3D57"/>
</svg>
