<svg width="40" height="40" viewBox="0 0 40 40" fill="none" xmlns="http://www.w3.org/2000/svg">
<rect width="40" height="40" rx="8" fill="#DAFFED"/>
<path d="M28.5025 11.4921C27.3967 10.381 26.0796 9.50002 24.6282 8.9005C23.1767 8.30097 21.6198 7.99488 20.0482 8.00006C13.4633 8.00006 8.09648 13.3401 8.09648 19.892C8.09648 21.992 8.65126 24.032 9.68844 25.832L8 32L14.3317 30.344C16.0804 31.292 18.0462 31.796 20.0482 31.796C26.6332 31.796 32 26.456 32 19.904C32 16.724 30.7578 13.736 28.5025 11.4921ZM20.0482 29.78C18.2633 29.78 16.5146 29.3 14.9829 28.4L14.6211 28.184L10.8583 29.168L11.8593 25.52L11.6181 25.148C10.6262 23.5725 10.0996 21.7512 10.0985 19.892C10.0985 14.444 14.5608 10.0041 20.0362 10.0041C22.6894 10.0041 25.1859 11.0361 27.0553 12.9081C27.981 13.8247 28.7147 14.9151 29.2136 16.116C29.7126 17.317 29.9669 18.6045 29.9618 19.904C29.9859 25.352 25.5236 29.78 20.0482 29.78Z" fill="#292D32"/>
<path d="M23.1265 21.3729C23.3918 21.4809 24.8631 22.2009 25.1646 22.3449C25.4662 22.4889 25.6471 22.5489 25.7315 22.6809C25.8159 22.8129 25.8159 23.4009 25.5626 24.0969C25.3214 24.7929 24.1275 25.4289 23.5486 25.5129C23.03 25.5849 22.3787 25.6209 21.6672 25.3929C21.233 25.2609 20.6782 25.0809 19.9667 24.7689C16.9757 23.4849 15.0099 20.4849 14.8652 20.2809L14.8628 20.2778C14.7092 20.0741 13.6471 18.6653 13.6471 17.2089C13.6471 15.7449 14.4189 15.0249 14.6842 14.7249C14.9616 14.4249 15.2752 14.3529 15.4802 14.3529H16.0591C16.24 14.3649 16.4933 14.2929 16.7345 14.8689C16.9757 15.4689 17.5787 16.9329 17.6511 17.0769C17.7234 17.2209 17.7717 17.3889 17.6752 17.5929C17.5787 17.7849 17.5184 17.9169 17.3737 18.0849C17.229 18.2529 17.0601 18.4689 16.9275 18.6009C16.7707 18.7569 16.626 18.9129 16.7948 19.2129C16.9757 19.5129 17.5667 20.4849 18.4591 21.2769C19.5928 22.2849 20.5576 22.6089 20.8591 22.7529C21.1606 22.9089 21.3415 22.8849 21.5104 22.6809C21.6792 22.4889 22.2461 21.8169 22.4511 21.5169C22.6561 21.2289 22.8491 21.2769 23.1265 21.3729Z" fill="#78C8A1"/>
</svg>
