<svg width="40" height="40" viewBox="0 0 40 40" fill="none" xmlns="http://www.w3.org/2000/svg">
<path d="M35.6471 10.7077C35.3322 10.7077 35.0301 10.5826 34.8074 10.3599C34.5847 10.1372 34.4596 9.83513 34.4596 9.52018C34.4596 9.20524 34.5847 8.90319 34.8074 8.68049C35.0301 8.45779 35.3322 8.33268 35.6471 8.33268C35.9621 8.33268 36.2641 8.45779 36.4868 8.68049C36.7095 8.90319 36.8346 9.20524 36.8346 9.52018C36.8346 9.83513 36.7095 10.1372 36.4868 10.3599C36.2641 10.5826 35.9621 10.7077 35.6471 10.7077ZM35.6471 10.7077V16.6452C35.6471 17.7503 35.6471 18.3029 35.511 18.751C35.36 19.2495 35.0884 19.703 34.7203 20.0715C34.3521 20.4399 33.8988 20.7118 33.4004 20.8632C32.9507 20.9993 32.3981 20.9993 31.293 20.9993M6.35547 31.291C6.67041 31.291 6.97246 31.4161 7.19516 31.6388C7.41786 31.8615 7.54297 32.1636 7.54297 32.4785C7.54297 32.7935 7.41786 33.0955 7.19516 33.3182C6.97246 33.5409 6.67041 33.666 6.35547 33.666C6.04052 33.666 5.73848 33.5409 5.51578 33.3182C5.29308 33.0955 5.16797 32.7935 5.16797 32.4785C5.16797 32.1636 5.29308 31.8615 5.51578 31.6388C5.73848 31.4161 6.04052 31.291 6.35547 31.291ZM6.35547 31.291V25.3535C6.35547 24.2483 6.35547 23.6958 6.49164 23.2477C6.6426 22.7492 6.9142 22.2956 7.28235 21.9272C7.6505 21.5588 8.10385 21.2869 8.60222 21.1355C9.05189 20.9993 9.60447 20.9993 10.7096 20.9993M10.7096 6.35352C10.7096 6.66846 10.5845 6.97051 10.3618 7.1932C10.1391 7.4159 9.83708 7.54102 9.52214 7.54102C9.20719 7.54102 8.90515 7.4159 8.68245 7.1932C8.45975 6.97051 8.33464 6.66846 8.33464 6.35352C8.33464 6.03857 8.45975 5.73653 8.68245 5.51383C8.90515 5.29113 9.20719 5.16602 9.52214 5.16602C9.83708 5.16602 10.1391 5.29113 10.3618 5.51383C10.5845 5.73653 10.7096 6.03857 10.7096 6.35352ZM10.7096 6.35352H16.6471C17.7523 6.35352 18.3049 6.35352 18.753 6.48968C19.2516 6.6408 19.7053 6.91263 20.0737 7.28108C20.4422 7.64952 20.714 8.10319 20.8651 8.60185C21.0013 9.04993 21.0013 9.60252 21.0013 10.7077M31.293 35.6452C31.293 35.3302 31.4181 35.0282 31.6408 34.8055C31.8635 34.5828 32.1655 34.4577 32.4805 34.4577C32.7954 34.4577 33.0975 34.5828 33.3202 34.8055C33.5429 35.0282 33.668 35.3302 33.668 35.6452C33.668 35.9601 33.5429 36.2622 33.3202 36.4849C33.0975 36.7076 32.7954 36.8327 32.4805 36.8327C32.1655 36.8327 31.8635 36.7076 31.6408 36.4849C31.4181 36.2622 31.293 35.9601 31.293 35.6452ZM31.293 35.6452H25.3555C24.2503 35.6452 23.6977 35.6452 23.2496 35.509C22.7512 35.358 22.2976 35.0865 21.9292 34.7183C21.5607 34.3501 21.2888 33.8968 21.1375 33.3984C21.0013 32.9488 21.0013 32.3962 21.0013 31.291" stroke="#1C274C" stroke-width="1.5" stroke-linejoin="round"/>
<path d="M10.7891 20.9225C10.7891 16.0712 10.7891 13.6455 12.2964 12.1382C13.8037 10.6309 16.2294 10.6309 21.0807 10.6309C25.9321 10.6309 28.3577 10.6309 29.8651 12.1382C31.3724 13.6455 31.3724 16.0712 31.3724 20.9225C31.3724 25.7739 31.3724 28.1995 29.8651 29.7069C28.3577 31.2142 25.9321 31.2142 21.0807 31.2142C16.2294 31.2142 13.8037 31.2142 12.2964 29.7069C10.7891 28.1995 10.7891 25.7739 10.7891 20.9225Z" stroke="#1C274C" stroke-width="1.5" stroke-linejoin="round"/>
<path d="M21.7921 24.9579L19.4804 17.7997C19.4002 17.5738 19.2509 17.3789 19.0536 17.2428C18.8564 17.1066 18.6212 17.0361 18.3816 17.0413C18.1422 17.0365 17.9074 17.1071 17.7104 17.2433C17.5135 17.3794 17.3644 17.5741 17.2843 17.7997L14.9727 24.9579M25.7504 17.0413V24.9579M15.8229 22.5829H20.9402" stroke="#78C8A1" stroke-width="1.5" stroke-linecap="round" stroke-linejoin="round"/>
</svg>
