<svg width="38" height="38" viewBox="0 0 38 38" fill="none" xmlns="http://www.w3.org/2000/svg">
<path d="M12.668 9.10352C12.0188 9.10352 11.4805 8.56518 11.4805 7.91602V3.16602C11.4805 2.51685 12.0188 1.97852 12.668 1.97852C13.3171 1.97852 13.8555 2.51685 13.8555 3.16602V7.91602C13.8555 8.56518 13.3171 9.10352 12.668 9.10352Z" fill="#292D32"/>
<path d="M25.332 9.10352C24.6829 9.10352 24.1445 8.56518 24.1445 7.91602V3.16602C24.1445 2.51685 24.6829 1.97852 25.332 1.97852C25.9812 1.97852 26.5195 2.51685 26.5195 3.16602V7.91602C26.5195 8.56518 25.9812 9.10352 25.332 9.10352Z" fill="#292D32"/>
<path d="M13.4583 22.9574C13.0467 22.9574 12.635 22.7832 12.3342 22.4982C12.0492 22.1974 11.875 21.8016 11.875 21.3741C11.875 21.1682 11.9225 20.9624 12.0017 20.7724C12.0808 20.5824 12.1917 20.4083 12.3342 20.2499C12.92 19.6641 13.9808 19.6641 14.5825 20.2499C14.8675 20.5508 15.0417 20.9624 15.0417 21.3741C15.0417 21.4691 15.0258 21.5799 15.01 21.6908C14.9942 21.7858 14.9625 21.8807 14.915 21.9757C14.8833 22.0707 14.8358 22.1657 14.7725 22.2607C14.7092 22.3399 14.6458 22.4191 14.5825 22.4982C14.2817 22.7832 13.87 22.9574 13.4583 22.9574Z" fill="#78C8A1"/>
<path d="M19.0013 22.9587C18.7955 22.9587 18.5896 22.9112 18.3996 22.832C18.1938 22.7529 18.0355 22.642 17.8771 22.4995C17.5921 22.1987 17.418 21.8028 17.418 21.3753C17.418 21.1695 17.4655 20.9637 17.5446 20.7737C17.6238 20.5837 17.7346 20.4095 17.8771 20.2512C18.0355 20.1087 18.1938 19.9978 18.3996 19.9186C18.9855 19.6811 19.6821 19.8078 20.1255 20.2512C20.4105 20.552 20.5846 20.9637 20.5846 21.3753C20.5846 21.4703 20.5688 21.5812 20.553 21.692C20.5371 21.787 20.5055 21.882 20.458 21.977C20.4263 22.072 20.3788 22.167 20.3155 22.262C20.268 22.3412 20.1888 22.4203 20.1255 22.4995C19.8246 22.7845 19.413 22.9587 19.0013 22.9587Z" fill="#78C8A1"/>
<path d="M13.4583 28.5007C13.2525 28.5007 13.0467 28.4532 12.8567 28.3741C12.6508 28.2949 12.4767 28.184 12.3342 28.0415C12.1917 27.899 12.0808 27.7249 12.0017 27.5191C11.9225 27.3291 11.875 27.1232 11.875 26.9174C11.875 26.7116 11.9225 26.5057 12.0017 26.3157C12.0808 26.1099 12.1917 25.9357 12.3342 25.7932C12.4767 25.6507 12.6508 25.5399 12.8567 25.4607C13.2367 25.3024 13.68 25.2865 14.06 25.4607C14.2658 25.5399 14.44 25.6507 14.5825 25.7932C14.725 25.9357 14.8358 26.1099 14.915 26.3157C14.9942 26.5057 15.0417 26.7116 15.0417 26.9174C15.0417 27.1232 14.9942 27.3291 14.915 27.5191C14.8358 27.7249 14.725 27.899 14.5825 28.0415C14.44 28.184 14.2658 28.2949 14.06 28.3741C13.87 28.4532 13.6642 28.5007 13.4583 28.5007Z" fill="#78C8A1"/>
<path d="M32.4596 15.5801H5.54297C4.8938 15.5801 4.35547 15.0417 4.35547 14.3926C4.35547 13.7434 4.8938 13.2051 5.54297 13.2051H32.4596C33.1088 13.2051 33.6471 13.7434 33.6471 14.3926C33.6471 15.0417 33.1088 15.5801 32.4596 15.5801Z" fill="#292D32"/>
<path d="M28.5013 37.6042C26.6488 37.6042 24.8913 36.9392 23.5455 35.72C22.9755 35.245 22.4688 34.6433 22.0571 33.9467C21.3605 32.8067 20.9805 31.4608 20.9805 30.0833C20.9805 25.935 24.353 22.5625 28.5013 22.5625C30.6546 22.5625 32.713 23.4966 34.138 25.1116C35.3571 26.505 36.0221 28.2625 36.0221 30.0833C36.0221 31.4608 35.6421 32.8067 34.9296 33.9625C33.5996 36.2109 31.1296 37.6042 28.5013 37.6042ZM28.5013 24.9375C25.6671 24.9375 23.3555 27.2492 23.3555 30.0833C23.3555 31.0175 23.6088 31.9359 24.0996 32.7275C24.3688 33.2025 24.7171 33.5983 25.0971 33.9308C26.0471 34.7858 27.2346 35.2292 28.5013 35.2292C30.3221 35.2292 31.9688 34.295 32.903 32.7433C33.3938 31.9358 33.6471 31.0333 33.6471 30.0833C33.6471 28.8483 33.188 27.645 32.3646 26.6792C31.383 25.5708 29.9738 24.9375 28.5013 24.9375Z" fill="#292D32"/>
<path d="M27.5987 32.8388C27.2979 32.8388 26.997 32.7279 26.7595 32.4904L25.192 30.9229C24.7329 30.4638 24.7329 29.7038 25.192 29.2446C25.6512 28.7854 26.4112 28.7854 26.8704 29.2446L27.6304 30.0046L30.1637 27.6613C30.6387 27.2179 31.3987 27.2496 31.842 27.7246C32.2854 28.1996 32.2537 28.9596 31.7787 29.403L28.4062 32.5221C28.1687 32.728 27.8837 32.8388 27.5987 32.8388Z" fill="#78C8A1"/>
<path d="M24.3358 36.0202H12.6667C6.8875 36.0202 3.5625 32.6952 3.5625 26.916V13.4577C3.5625 7.67852 6.8875 4.35352 12.6667 4.35352H25.3333C31.1125 4.35352 34.4375 7.67852 34.4375 13.4577V25.9027C34.4375 26.3935 34.1367 26.8368 33.6617 27.011C33.2025 27.1852 32.68 27.0585 32.3475 26.6785C31.3658 25.5702 29.9567 24.9368 28.4842 24.9368C25.65 24.9368 23.3383 27.2485 23.3383 30.0827C23.3383 31.0168 23.5917 31.9352 24.0825 32.7269C24.3517 33.2019 24.7 33.5977 25.08 33.9302C25.46 34.2468 25.6025 34.7694 25.4283 35.2444C25.2858 35.7035 24.8425 36.0202 24.3358 36.0202ZM12.6667 6.72852C8.13833 6.72852 5.9375 8.92935 5.9375 13.4577V26.916C5.9375 31.4443 8.13833 33.6452 12.6667 33.6452H21.8817C21.2958 32.5685 20.9792 31.3493 20.9792 30.0827C20.9792 25.9343 24.3517 22.5618 28.5 22.5618C29.7508 22.5618 30.9858 22.8785 32.0625 23.4644V13.4577C32.0625 8.92935 29.8617 6.72852 25.3333 6.72852H12.6667Z" fill="#292D32"/>
</svg>
