<svg width="38" height="38" viewBox="0 0 38 38" fill="none" xmlns="http://www.w3.org/2000/svg">
<path d="M23.7513 36.0202H14.2513C5.6538 36.0202 1.98047 32.3468 1.98047 23.7493V14.2493C1.98047 5.65185 5.6538 1.97852 14.2513 1.97852H23.7513C32.3488 1.97852 36.0221 5.65185 36.0221 14.2493V23.7493C36.0221 32.3468 32.3488 36.0202 23.7513 36.0202ZM14.2513 4.35352C6.95214 4.35352 4.35547 6.95018 4.35547 14.2493V23.7493C4.35547 31.0485 6.95214 33.6452 14.2513 33.6452H23.7513C31.0505 33.6452 33.6471 31.0485 33.6471 23.7493V14.2493C33.6471 6.95018 31.0505 4.35352 23.7513 4.35352H14.2513Z" fill="#292D32"/>
<path d="M24.668 30.4797C24.0188 30.4797 23.4805 29.9414 23.4805 29.2922V23.1172C23.4805 22.468 24.0188 21.9297 24.668 21.9297C25.3171 21.9297 25.8555 22.468 25.8555 23.1172V29.2922C25.8555 29.9414 25.3171 30.4797 24.668 30.4797Z" fill="#292D32"/>
<path d="M24.668 12.984C24.0188 12.984 23.4805 12.4457 23.4805 11.7965V8.70898C23.4805 8.05982 24.0188 7.52148 24.668 7.52148C25.3171 7.52148 25.8555 8.05982 25.8555 8.70898V11.7965C25.8555 12.4457 25.3171 12.984 24.668 12.984Z" fill="#292D32"/>
<path d="M24.6674 21.2158C21.7383 21.2158 19.3633 18.8408 19.3633 15.9116C19.3633 12.9824 21.7383 10.6074 24.6674 10.6074C27.5966 10.6074 29.9716 12.9824 29.9716 15.9116C29.9716 18.8408 27.5808 21.2158 24.6674 21.2158ZM24.6674 12.9824C23.0524 12.9824 21.7383 14.2966 21.7383 15.9116C21.7383 17.5266 23.0524 18.8408 24.6674 18.8408C26.2824 18.8408 27.5966 17.5266 27.5966 15.9116C27.5966 14.2966 26.2666 12.9824 24.6674 12.9824Z" fill="#78C8A1"/>
<path d="M13.332 30.4801C12.6829 30.4801 12.1445 29.9417 12.1445 29.2926V26.2051C12.1445 25.5559 12.6829 25.0176 13.332 25.0176C13.9812 25.0176 14.5195 25.5559 14.5195 26.2051V29.2926C14.5195 29.9417 13.997 30.4801 13.332 30.4801Z" fill="#292D32"/>
<path d="M13.332 16.0715C12.6829 16.0715 12.1445 15.5331 12.1445 14.884V8.70898C12.1445 8.05982 12.6829 7.52148 13.332 7.52148C13.9812 7.52148 14.5195 8.05982 14.5195 8.70898V14.884C14.5195 15.5331 13.997 16.0715 13.332 16.0715Z" fill="#292D32"/>
<path d="M13.3315 27.3915C10.4023 27.3915 8.02734 25.0165 8.02734 22.0874C8.02734 19.1582 10.4023 16.7832 13.3315 16.7832C16.2607 16.7832 18.6357 19.1582 18.6357 22.0874C18.6357 25.0165 16.2607 27.3915 13.3315 27.3915ZM13.3315 19.1582C11.7165 19.1582 10.4023 20.4724 10.4023 22.0874C10.4023 23.7024 11.7165 25.0165 13.3315 25.0165C14.9465 25.0165 16.2607 23.7024 16.2607 22.0874C16.2607 20.4724 14.9623 19.1582 13.3315 19.1582Z" fill="#78C8A1"/>
</svg>
