<svg width="38" height="38" viewBox="0 0 38 38" fill="none" xmlns="http://www.w3.org/2000/svg">
<path d="M24.1471 9.49935C24.1471 6.65738 21.8433 4.35352 19.0013 4.35352C16.1593 4.35352 13.8555 6.65738 13.8555 9.49935C13.8555 12.3413 16.1593 14.6452 19.0013 14.6452C21.8433 14.6452 24.1471 12.3413 24.1471 9.49935ZM26.5221 9.49935C26.5221 13.653 23.1549 17.0202 19.0013 17.0202C14.8477 17.0202 11.4805 13.653 11.4805 9.49935C11.4805 5.34571 14.8477 1.97852 19.0013 1.97852C23.1549 1.97852 26.5221 5.34571 26.5221 9.49935Z" fill="#1C274C"/>
<path d="M32.0625 10.2923C32.0625 8.95556 30.6794 7.52148 28.5 7.52148C27.8442 7.52148 27.3125 6.98982 27.3125 6.33398C27.3125 5.67815 27.8442 5.14648 28.5 5.14648C31.5673 5.14648 34.4375 7.25682 34.4375 10.2923C34.4375 13.3278 31.5673 15.4382 28.5 15.4382C27.8442 15.4382 27.3125 14.9065 27.3125 14.2507C27.3125 13.5948 27.8442 13.0632 28.5 13.0632C30.6794 13.0632 32.0625 11.6291 32.0625 10.2923Z" fill="#78C8A1"/>
<path d="M5.9375 10.2923C5.9375 8.95556 7.32056 7.52148 9.5 7.52148C10.1558 7.52148 10.6875 6.98982 10.6875 6.33398C10.6875 5.67815 10.1558 5.14648 9.5 5.14648C6.43273 5.14648 3.5625 7.25682 3.5625 10.2923C3.5625 13.3278 6.43273 15.4382 9.5 15.4382C10.1558 15.4382 10.6875 14.9065 10.6875 14.2507C10.6875 13.5948 10.1558 13.0632 9.5 13.0632C7.32056 13.0632 5.9375 11.6291 5.9375 10.2923Z" fill="#78C8A1"/>
<path d="M27.3125 26.9173C27.3125 25.689 26.565 24.4321 25.0581 23.4275C23.5596 22.4286 21.4215 21.7715 19 21.7715C16.5785 21.7715 14.4404 22.4286 12.9419 23.4275C11.435 24.4321 10.6875 25.689 10.6875 26.9173C10.6875 28.1456 11.435 29.4026 12.9419 30.4071C14.4404 31.4061 16.5785 32.0632 19 32.0632C21.4215 32.0632 23.5596 31.4061 25.0581 30.4071C26.565 29.4026 27.3125 28.1456 27.3125 26.9173ZM29.6875 26.9173C29.6875 29.1868 28.307 31.0956 26.3755 32.3832C24.4357 33.6763 21.825 34.4382 19 34.4382C16.175 34.4382 13.5643 33.6763 11.6245 32.3832C9.69304 31.0956 8.3125 29.1868 8.3125 26.9173C8.3125 24.6478 9.69304 22.7391 11.6245 21.4514C13.5643 20.1583 16.175 19.3965 19 19.3965C21.825 19.3965 24.4357 20.1583 26.3755 21.4514C28.307 22.7391 29.6875 24.6478 29.6875 26.9173Z" fill="#1C274C"/>
<path d="M35.2305 26.1243C35.2305 25.6869 34.9947 25.1574 34.3321 24.6152C33.6704 24.0738 32.6673 23.6008 31.4128 23.3257C30.7727 23.1849 30.3679 22.5512 30.5083 21.9109C30.6491 21.2707 31.2827 20.8659 31.9231 21.0063C33.4457 21.3403 34.8179 21.9432 35.8366 22.7768C36.8546 23.6098 37.6055 24.7551 37.6055 26.1243C37.6055 27.4935 36.8546 28.6389 35.8366 29.4719C34.8179 30.3055 33.4457 30.9083 31.9231 31.2423C31.2827 31.3828 30.6491 30.978 30.5083 30.3378C30.3679 29.6974 30.7727 29.0638 31.4128 28.923C32.6673 28.6479 33.6704 28.1749 34.3321 27.6335C34.9947 27.0912 35.2305 26.5618 35.2305 26.1243Z" fill="#78C8A1"/>
<path d="M2.76954 26.1243C2.76954 25.6869 3.00528 25.1574 3.66789 24.6152C4.32962 24.0738 5.33271 23.6008 6.58716 23.3257C7.22733 23.1849 7.63213 22.5512 7.4917 21.9109C7.35088 21.2707 6.71726 20.8659 6.07691 21.0063C4.55431 21.3403 3.18212 21.9432 2.16342 22.7768C1.14542 23.6098 0.394536 24.7551 0.394536 26.1243C0.394536 27.4935 1.14542 28.6389 2.16342 29.4719C3.18212 30.3055 4.55431 30.9083 6.07691 31.2423C6.71726 31.3828 7.35088 30.978 7.4917 30.3378C7.63213 29.6974 7.22733 29.0638 6.58716 28.923C5.33271 28.6479 4.32962 28.1749 3.66789 27.6335C3.00528 27.0912 2.76954 26.5618 2.76954 26.1243Z" fill="#78C8A1"/>
</svg>
