<svg width="38" height="38" viewBox="0 0 38 38" fill="none" xmlns="http://www.w3.org/2000/svg">
<path d="M28.5 17.8125C29.1558 17.8125 29.6875 18.3442 29.6875 19C29.6875 19.6558 29.1558 20.1875 28.5 20.1875H9.5C8.84416 20.1875 8.3125 19.6558 8.3125 19C8.3125 18.3442 8.84416 17.8125 9.5 17.8125H28.5Z" fill="#292D32"/>
<path d="M16.2266 26.9173V11.084C16.2266 9.3176 16.6691 7.7748 17.762 6.68188C18.8549 5.58897 20.3977 5.14648 22.1641 5.14648H28.4974C29.1532 5.14648 29.6849 5.67815 29.6849 6.33398C29.6849 6.98982 29.1532 7.52148 28.4974 7.52148H22.1641C20.7638 7.52148 19.9316 7.87066 19.4412 8.36108C18.9507 8.85151 18.6016 9.6837 18.6016 11.084V26.9173C18.6016 28.3176 18.9507 29.1498 19.4412 29.6402C19.9316 30.1306 20.7638 30.4798 22.1641 30.4798H28.4974C29.1532 30.4798 29.6849 31.0115 29.6849 31.6673C29.6849 32.3232 29.1532 32.8548 28.4974 32.8548H22.1641C20.3977 32.8548 18.8549 32.4123 17.762 31.3194C16.6691 30.2265 16.2266 28.6837 16.2266 26.9173Z" fill="#292D32"/>
<path d="M33.6458 18.9987C33.6458 17.9056 32.7597 17.0195 31.6667 17.0195C30.5736 17.0195 29.6875 17.9056 29.6875 18.9987C29.6875 20.0918 30.5736 20.9779 31.6667 20.9779C32.7597 20.9779 33.6458 20.0918 33.6458 18.9987ZM36.0208 18.9987C36.0208 21.4034 34.0714 23.3529 31.6667 23.3529C29.2619 23.3529 27.3125 21.4034 27.3125 18.9987C27.3125 16.594 29.2619 14.6445 31.6667 14.6445C34.0714 14.6445 36.0208 16.594 36.0208 18.9987Z" fill="#78C8A1"/>
<path d="M33.6458 6.33268C33.6458 5.23962 32.7597 4.35352 31.6667 4.35352C30.5736 4.35352 29.6875 5.23962 29.6875 6.33268C29.6875 7.42575 30.5736 8.31185 31.6667 8.31185C32.7597 8.31185 33.6458 7.42575 33.6458 6.33268ZM36.0208 6.33268C36.0208 8.73742 34.0714 10.6868 31.6667 10.6868C29.2619 10.6868 27.3125 8.73742 27.3125 6.33268C27.3125 3.92794 29.2619 1.97852 31.6667 1.97852C34.0714 1.97852 36.0208 3.92794 36.0208 6.33268Z" fill="#78C8A1"/>
<path d="M33.6458 31.6667C33.6458 30.5736 32.7597 29.6875 31.6667 29.6875C30.5736 29.6875 29.6875 30.5736 29.6875 31.6667C29.6875 32.7597 30.5736 33.6458 31.6667 33.6458C32.7597 33.6458 33.6458 32.7597 33.6458 31.6667ZM36.0208 31.6667C36.0208 34.0714 34.0714 36.0208 31.6667 36.0208C29.2619 36.0208 27.3125 34.0714 27.3125 31.6667C27.3125 29.2619 29.2619 27.3125 31.6667 27.3125C34.0714 27.3125 36.0208 29.2619 36.0208 31.6667Z" fill="#78C8A1"/>
<path d="M8.3099 18.9987C8.3099 17.9056 7.42379 17.0195 6.33073 17.0195C5.23767 17.0195 4.35156 17.9056 4.35156 18.9987C4.35156 20.0918 5.23767 20.9779 6.33073 20.9779C7.42379 20.9779 8.3099 20.0918 8.3099 18.9987ZM10.6849 18.9987C10.6849 21.4034 8.73547 23.3529 6.33073 23.3529C3.92599 23.3529 1.97656 21.4034 1.97656 18.9987C1.97656 16.594 3.92599 14.6445 6.33073 14.6445C8.73547 14.6445 10.6849 16.594 10.6849 18.9987Z" fill="#78C8A1"/>
</svg>
