<svg width="38" height="38" viewBox="0 0 38 38" fill="none" xmlns="http://www.w3.org/2000/svg">
<path d="M26.918 33.6452H11.0846C10.4355 33.6452 9.89714 33.1068 9.89714 32.4577C9.89714 31.8085 10.4355 31.2702 11.0846 31.2702H26.918C31.4463 31.2702 33.6471 29.0693 33.6471 24.541V13.4577C33.6471 8.92935 31.4463 6.72852 26.918 6.72852H11.0846C6.5563 6.72852 4.35547 8.92935 4.35547 13.4577C4.35547 14.1068 3.81714 14.6452 3.16797 14.6452C2.5188 14.6452 1.98047 14.1068 1.98047 13.4577C1.98047 7.67852 5.30547 4.35352 11.0846 4.35352H26.918C32.6971 4.35352 36.0221 7.67852 36.0221 13.4577V24.541C36.0221 30.3202 32.6971 33.6452 26.918 33.6452Z" fill="#292D32"/>
<path d="M18.9991 20.377C17.6691 20.377 16.3233 19.9653 15.2941 19.1261L10.3382 15.1678C9.83158 14.7561 9.73658 14.012 10.1483 13.5053C10.5599 12.9986 11.3041 12.9036 11.8107 13.3153L16.7666 17.2736C17.9699 18.2395 20.0124 18.2395 21.2157 17.2736L26.1716 13.3153C26.6782 12.9036 27.4382 12.9828 27.8341 13.5053C28.2457 14.012 28.1666 14.772 27.6441 15.1678L22.6882 19.1261C21.6749 19.9653 20.3291 20.377 18.9991 20.377Z" fill="#78C8A1"/>
<path d="M12.668 27.3125H3.16797C2.5188 27.3125 1.98047 26.7742 1.98047 26.125C1.98047 25.4758 2.5188 24.9375 3.16797 24.9375H12.668C13.3171 24.9375 13.8555 25.4758 13.8555 26.125C13.8555 26.7742 13.3171 27.3125 12.668 27.3125Z" fill="#78C8A1"/>
<path d="M7.91797 20.9785H3.16797C2.5188 20.9785 1.98047 20.4402 1.98047 19.791C1.98047 19.1418 2.5188 18.6035 3.16797 18.6035H7.91797C8.56714 18.6035 9.10547 19.1418 9.10547 19.791C9.10547 20.4402 8.56714 20.9785 7.91797 20.9785Z" fill="#78C8A1"/>
</svg>
