<svg width="40" height="40" viewBox="0 0 40 40" fill="none" xmlns="http://www.w3.org/2000/svg">
<path d="M27.3333 38.0202H14.6667C8.8875 38.0202 5.5625 34.6952 5.5625 28.916V13.0827C5.5625 7.30352 8.8875 3.97852 14.6667 3.97852H27.3333C33.1125 3.97852 36.4375 7.30352 36.4375 13.0827V28.916C36.4375 34.6952 33.1125 38.0202 27.3333 38.0202ZM14.6667 6.35352C10.1383 6.35352 7.9375 8.55435 7.9375 13.0827V28.916C7.9375 33.4443 10.1383 35.6452 14.6667 35.6452H27.3333C31.8617 35.6452 34.0625 33.4443 34.0625 28.916V13.0827C34.0625 8.55435 31.8617 6.35352 27.3333 6.35352H14.6667Z" fill="#292D32"/>
<path d="M31.2904 16.6458H28.1237C25.717 16.6458 23.7695 14.6983 23.7695 12.2917V9.125C23.7695 8.47583 24.3079 7.9375 24.957 7.9375C25.6062 7.9375 26.1445 8.47583 26.1445 9.125V12.2917C26.1445 13.3842 27.0312 14.2708 28.1237 14.2708H31.2904C31.9395 14.2708 32.4779 14.8092 32.4779 15.4583C32.4779 16.1075 31.9395 16.6458 31.2904 16.6458Z" fill="#78C8A1"/>
<path d="M21.0013 23.7715H14.668C14.0188 23.7715 13.4805 23.2332 13.4805 22.584C13.4805 21.9348 14.0188 21.3965 14.668 21.3965H21.0013C21.6505 21.3965 22.1888 21.9348 22.1888 22.584C22.1888 23.2332 21.6505 23.7715 21.0013 23.7715Z" fill="#78C8A1"/>
<path d="M27.3346 30.1035H14.668C14.0188 30.1035 13.4805 29.5652 13.4805 28.916C13.4805 28.2668 14.0188 27.7285 14.668 27.7285H27.3346C27.9838 27.7285 28.5221 28.2668 28.5221 28.916C28.5221 29.5652 27.9838 30.1035 27.3346 30.1035Z" fill="#78C8A1"/>
</svg>
