<svg width="40" height="40" viewBox="0 0 40 40" fill="none" xmlns="http://www.w3.org/2000/svg">
<path d="M14.668 37.3399C14.2246 37.3399 13.7654 37.2291 13.3538 37.0074C12.4513 36.5324 11.8971 35.5824 11.8971 34.569V32.3208C7.11547 31.83 3.98047 28.3149 3.98047 23.2799V13.7799C3.98047 8.33328 7.63797 4.67578 13.0846 4.67578H28.918C34.3646 4.67578 38.0221 8.33328 38.0221 13.7799V23.2799C38.0221 28.7265 34.3646 32.384 28.918 32.384H22.9488L16.2038 36.8808C15.7446 37.1817 15.2063 37.3399 14.668 37.3399ZM13.0846 7.03493C8.99964 7.03493 6.35547 9.6791 6.35547 13.7641V23.2642C6.35547 27.3492 8.99964 29.9934 13.0846 29.9934C13.7338 29.9934 14.2721 30.5317 14.2721 31.1809V34.5534C14.2721 34.7592 14.3988 34.8542 14.478 34.9017C14.5571 34.9492 14.7155 34.9966 14.8897 34.8858L21.9355 30.1992C22.1255 30.0725 22.363 29.9934 22.6005 29.9934H28.9338C33.0188 29.9934 35.663 27.3492 35.663 23.2642V13.7641C35.663 9.6791 33.0188 7.03493 28.9338 7.03493H13.0846Z" fill="#292D32"/>
<path d="M20.9994 21.1738C20.3502 21.1738 19.8119 20.6355 19.8119 19.9863V19.6539C19.8119 17.8172 21.1577 16.9147 21.6644 16.5664C22.2502 16.1705 22.4402 15.9014 22.4402 15.4897C22.4402 14.698 21.7911 14.0488 20.9994 14.0488C20.2077 14.0488 19.5586 14.698 19.5586 15.4897C19.5586 16.1389 19.0203 16.6772 18.3711 16.6772C17.7219 16.6772 17.1836 16.1389 17.1836 15.4897C17.1836 13.3839 18.8936 11.6738 20.9994 11.6738C23.1052 11.6738 24.8152 13.3839 24.8152 15.4897C24.8152 17.2947 23.4852 18.1972 22.9944 18.5297C22.3769 18.9414 22.1869 19.2106 22.1869 19.6539V19.9863C22.1869 20.6513 21.6486 21.1738 20.9994 21.1738Z" fill="#78C8A1"/>
<path d="M21 25.1172C20.335 25.1172 19.8125 24.5789 19.8125 23.9297C19.8125 23.2805 20.3508 22.7422 21 22.7422C21.6492 22.7422 22.1875 23.2805 22.1875 23.9297C22.1875 24.5789 21.665 25.1172 21 25.1172Z" fill="#78C8A1"/>
</svg>
