<svg width="38" height="38" viewBox="0 0 38 38" fill="none" xmlns="http://www.w3.org/2000/svg">
<path d="M19.0013 36.0202C17.7663 36.0202 16.563 35.3868 15.7396 34.2785L14.1405 32.141C13.808 31.6977 13.3646 31.4443 12.8896 31.4127C12.4146 31.3969 11.9396 31.6027 11.5596 31.9985L10.6571 31.191L11.528 31.9985C9.24797 34.4368 7.49047 34.2468 6.6513 33.9144C5.7963 33.5819 4.35547 32.4893 4.35547 28.9743V11.146C4.35547 4.11602 6.38214 1.97852 13.0163 1.97852H24.9863C31.6205 1.97852 33.6471 4.11602 33.6471 11.146V28.9743C33.6471 32.4735 32.2063 33.566 31.3513 33.9144C30.5121 34.2468 28.7705 34.4368 26.4746 31.9985C26.0946 31.5868 25.6355 31.3652 25.1288 31.4127C24.6538 31.4443 24.1946 31.6977 23.8621 32.141L22.263 34.2785C21.4396 35.3868 20.2363 36.0202 19.0013 36.0202ZM12.7946 29.0218C12.858 29.0218 12.9371 29.0218 13.0005 29.0218C14.1721 29.0852 15.2805 29.7027 16.0246 30.7002L17.6238 32.8377C18.3996 33.8668 19.5871 33.8668 20.363 32.8377L21.9621 30.7002C22.7221 29.7027 23.8146 29.0852 25.0021 29.0218C26.1738 28.9585 27.3455 29.4494 28.2005 30.3677C29.4038 31.6502 30.1955 31.8085 30.4646 31.6977C30.8446 31.5394 31.2563 30.621 31.2563 28.9743V11.146C31.2563 5.43018 30.2588 4.35352 24.9705 4.35352H13.0163C7.72797 4.35352 6.73047 5.43018 6.73047 11.146V28.9743C6.73047 30.6368 7.14214 31.5552 7.52214 31.6977C7.7913 31.8085 8.58297 31.6502 9.7863 30.3677C10.6413 29.4969 11.7021 29.0218 12.7946 29.0218Z" fill="#292D32"/>
<path d="M25.3346 12.2715H12.668C12.0188 12.2715 11.4805 11.7332 11.4805 11.084C11.4805 10.4348 12.0188 9.89648 12.668 9.89648H25.3346C25.9838 9.89648 26.5221 10.4348 26.5221 11.084C26.5221 11.7332 25.9838 12.2715 25.3346 12.2715Z" fill="#78C8A1"/>
<path d="M23.75 18.6035H14.25C13.6008 18.6035 13.0625 18.0652 13.0625 17.416C13.0625 16.7668 13.6008 16.2285 14.25 16.2285H23.75C24.3992 16.2285 24.9375 16.7668 24.9375 17.416C24.9375 18.0652 24.3992 18.6035 23.75 18.6035Z" fill="#78C8A1"/>
</svg>
