<svg width="38" height="38" viewBox="0 0 38 38" fill="none" xmlns="http://www.w3.org/2000/svg">
<path d="M27.6305 36.0202C25.8413 36.0202 23.9571 35.5927 22.0096 34.7693C20.1096 33.9618 18.1938 32.8535 16.3255 31.5077C14.473 30.146 12.6838 28.626 10.9896 26.9635C9.3113 25.2694 7.7913 23.4802 6.44547 21.6435C5.0838 19.7435 3.9913 17.8435 3.21547 16.0068C2.39214 14.0435 1.98047 12.1435 1.98047 10.3543C1.98047 9.11935 2.20214 7.94768 2.62964 6.85518C3.07297 5.73102 3.78547 4.68602 4.7513 3.78352C5.97047 2.58018 7.3638 1.97852 8.85214 1.97852C9.46964 1.97852 10.103 2.12102 10.6413 2.37435C11.2588 2.65935 11.7813 3.08685 12.1613 3.65685L15.8346 8.83435C16.1671 9.29352 16.4205 9.73685 16.5946 10.1802C16.8005 10.6552 16.9113 11.1302 16.9113 11.5893C16.9113 12.191 16.7371 12.7768 16.4046 13.331C16.1671 13.7585 15.803 14.2177 15.3438 14.6769L14.2671 15.801C14.283 15.8485 14.2988 15.8802 14.3146 15.9118C14.5046 16.2443 14.8846 16.8143 15.613 17.6693C16.3888 18.556 17.1171 19.3635 17.8455 20.1077C18.7796 21.026 19.5555 21.7543 20.2838 22.356C21.1863 23.116 21.7721 23.496 22.1205 23.6702L22.0888 23.7493L23.2446 22.6093C23.7355 22.1185 24.2105 21.7543 24.6696 21.5168C25.5405 20.9785 26.6488 20.8835 27.7571 21.3427C28.1688 21.5168 28.6121 21.7543 29.0871 22.0868L34.3438 25.8235C34.9296 26.2193 35.3571 26.726 35.6105 27.3277C35.848 27.9293 35.9588 28.4835 35.9588 29.0377C35.9588 29.7977 35.7846 30.5577 35.4521 31.2702C35.1196 31.9827 34.708 32.6002 34.1855 33.1702C33.283 34.1677 32.3013 34.8802 31.1613 35.3393C30.0688 35.7827 28.8813 36.0202 27.6305 36.0202ZM8.85214 4.35352C7.9813 4.35352 7.1738 4.73352 6.39797 5.49352C5.66964 6.17435 5.16297 6.91852 4.8463 7.72602C4.5138 8.54935 4.35547 9.42018 4.35547 10.3543C4.35547 11.8268 4.7038 13.426 5.40047 15.0727C6.11297 16.751 7.11047 18.4927 8.37714 20.2343C9.6438 21.976 11.0846 23.6702 12.668 25.2694C14.2513 26.8368 15.9613 28.2935 17.7188 29.576C19.4288 30.8269 21.1863 31.8402 22.928 32.5685C25.6355 33.7243 28.1688 33.9935 30.2588 33.1227C31.0663 32.7902 31.7788 32.2835 32.428 31.5552C32.7921 31.1593 33.0771 30.7318 33.3146 30.2252C33.5046 29.8293 33.5996 29.4177 33.5996 29.006C33.5996 28.7527 33.5521 28.4993 33.4255 28.2143C33.378 28.1193 33.283 27.9452 32.9821 27.7394L27.7255 24.0027C27.4088 23.781 27.1238 23.6227 26.8546 23.5119C26.5063 23.3694 26.3638 23.2269 25.8255 23.5593C25.5088 23.7177 25.2238 23.9552 24.9071 24.2718L23.7038 25.4593C23.0863 26.061 22.1363 26.2035 21.408 25.9343L20.9805 25.7444C20.3313 25.396 19.5713 24.8577 18.7321 24.1452C17.9721 23.496 17.1488 22.736 16.1513 21.7543C15.3755 20.9627 14.5996 20.1235 13.7921 19.1894C13.048 18.3185 12.5096 17.5743 12.1771 16.9568L11.9871 16.4818C11.8921 16.1177 11.8605 15.9118 11.8605 15.6902C11.8605 15.1202 12.0663 14.6135 12.4621 14.2177L13.6496 12.9827C13.9663 12.666 14.2038 12.3652 14.3621 12.096C14.4888 11.8902 14.5363 11.716 14.5363 11.5577C14.5363 11.431 14.4888 11.241 14.4096 11.051C14.2988 10.7977 14.1246 10.5127 13.903 10.2118L10.2296 5.01852C10.0713 4.79685 9.8813 4.63852 9.6438 4.52768C9.39047 4.41685 9.1213 4.35352 8.85214 4.35352ZM22.0888 23.7652L21.8355 24.8418L22.263 23.7335C22.1838 23.7177 22.1205 23.7335 22.0888 23.7652Z" fill="#292D32"/>
<path d="M29.2917 15.4382C28.6425 15.4382 28.1042 14.8998 28.1042 14.2507C28.1042 13.6807 27.5342 12.4932 26.5842 11.4798C25.65 10.4823 24.6208 9.89648 23.75 9.89648C23.1008 9.89648 22.5625 9.35815 22.5625 8.70898C22.5625 8.05982 23.1008 7.52148 23.75 7.52148C25.2858 7.52148 26.9008 8.34482 28.31 9.84898C29.6242 11.2582 30.4792 12.984 30.4792 14.2507C30.4792 14.8998 29.9408 15.4382 29.2917 15.4382Z" fill="#78C8A1"/>
<path d="M34.8333 15.4368C34.1842 15.4368 33.6458 14.8985 33.6458 14.2493C33.6458 8.78685 29.2125 4.35352 23.75 4.35352C23.1008 4.35352 22.5625 3.81518 22.5625 3.16602C22.5625 2.51685 23.1008 1.97852 23.75 1.97852C30.5108 1.97852 36.0208 7.48852 36.0208 14.2493C36.0208 14.8985 35.4825 15.4368 34.8333 15.4368Z" fill="#78C8A1"/>
</svg>
