<svg width="811" height="154" viewBox="0 0 811 154" fill="none" xmlns="http://www.w3.org/2000/svg">
<path d="M35.1199 82.1035H16.2499C18.7999 111.514 42.4399 134.884 71.9699 137.014V117.234C49.4399 115.104 37.1499 99.2335 35.1199 82.1035Z" fill="white"/>
<path d="M71.9699 36.7236V16.6436C42.0499 18.8036 18.1699 42.7736 16.1599 72.7336H35.0199C36.7399 55.2736 49.0499 38.8936 71.9699 36.7336V36.7236Z" fill="white"/>
<path d="M81.3399 16.4834V36.8034C87.7499 37.5234 93.2999 39.3634 98.0099 42.0334L83.9099 56.1334C69.6799 50.7434 53.4799 62.0134 53.7799 77.3234C55.0599 111.143 106.05 103.933 97.9299 71.0834L112.42 56.5934C115.19 61.5634 116.85 67.0934 117.41 72.7234H136.71V16.4834H81.3399Z" fill="white"/>
<path d="M81.34 117.153V136.973C110.6 134.583 133.95 111.323 136.48 82.1133H117.31C115.3 99.0133 103.31 114.713 81.34 117.163V117.153Z" fill="white"/>
<path d="M794.75 76.4472C794.75 82.567 793.646 88.135 791.439 93.1512C789.232 98.0671 786.222 102.281 782.41 105.792C778.598 109.203 774.183 111.862 769.167 113.768C764.151 115.674 758.784 116.627 753.065 116.627C747.447 116.627 742.079 115.674 736.963 113.768C731.947 111.862 727.532 109.203 723.72 105.792C720.008 102.281 717.048 98.0671 714.841 93.1512C712.634 88.135 711.531 82.567 711.531 76.4472C711.531 70.3274 712.634 64.8095 714.841 59.8936C717.048 54.9777 720.008 50.8142 723.72 47.4032C727.532 43.9922 731.947 41.3837 736.963 39.5779C742.079 37.7721 747.447 36.8691 753.065 36.8691C758.784 36.8691 764.151 37.7721 769.167 39.5779C774.183 41.3837 778.598 43.9922 782.41 47.4032C786.222 50.8142 789.232 54.9777 791.439 59.8936C793.646 64.8095 794.75 70.3274 794.75 76.4472ZM770.973 76.4472C770.973 74.0394 770.572 71.6818 769.769 69.3743C768.966 67.0668 767.813 65.0603 766.308 63.3548C764.803 61.549 762.947 60.0943 760.74 58.9907C758.533 57.8871 755.974 57.3353 753.065 57.3353C750.156 57.3353 747.597 57.8871 745.39 58.9907C743.183 60.0943 741.327 61.549 739.822 63.3548C738.418 65.0603 737.314 67.0668 736.511 69.3743C735.809 71.6818 735.458 74.0394 735.458 76.4472C735.458 78.855 735.809 81.2126 736.511 83.5201C737.314 85.8275 738.468 87.9343 739.973 89.8405C741.477 91.6463 743.334 93.1011 745.541 94.2046C747.748 95.3082 750.306 95.86 753.215 95.86C756.125 95.86 758.683 95.3082 760.89 94.2046C763.097 93.1011 764.953 91.6463 766.458 89.8405C767.963 87.9343 769.067 85.8275 769.769 83.5201C770.572 81.2126 770.973 78.855 770.973 76.4472Z" fill="white"/>
<path d="M644.095 59.4412C642.992 59.1402 641.888 58.9396 640.785 58.8393C639.781 58.7389 638.778 58.6888 637.775 58.6888C634.464 58.6888 631.655 59.2907 629.347 60.4946C627.14 61.6985 625.334 63.1533 623.93 64.8588C622.626 66.5643 621.673 68.4203 621.071 70.4269C620.469 72.4334 620.168 74.1891 620.168 75.6939L619.455 114.219H598.832V59.04H585.455L593.455 38.1689H619.455V50.1689C621.49 46.5408 623.86 43.4086 627.692 40.7807C631.203 38.3729 635.267 37.1689 639.882 37.1689C640.885 37.1689 641.838 37.2191 642.741 37.3194C643.744 37.4198 644.547 37.5702 645.149 37.7709L644.095 59.4412Z" fill="white"/>
<path d="M608.455 38.1689H619.455V114.169L608.455 38.1689Z" fill="#F1F1F1"/>
<path d="M707.133 59.4412C706.03 59.1402 704.926 58.9396 703.823 58.8393C702.819 58.7389 701.816 58.6888 700.813 58.6888C697.502 58.6888 694.693 59.2907 692.386 60.4946C690.178 61.6985 688.373 63.1533 686.968 64.8588C685.664 66.5643 684.711 68.4203 684.109 70.4269C683.507 72.4334 683.206 74.1891 683.206 75.6939L682.493 114.219H661.87V59.04H648.493L656.493 38.1689H682.493V50.1689C684.528 46.5408 686.898 43.4086 690.73 40.7807C694.242 38.3729 698.305 37.1689 702.92 37.1689C703.923 37.1689 704.876 37.2191 705.779 37.3194C706.782 37.4198 707.585 37.5702 708.187 37.7709L707.133 59.4412Z" fill="white"/>
<path d="M671.493 38.1689H682.493V114.169L671.493 38.1689Z" fill="#F1F1F1"/>
<path d="M559.388 68.1704C559.388 64.2577 558.134 60.8969 555.626 58.0878C553.218 55.2787 549.556 53.8741 544.64 53.8741C542.232 53.8741 540.025 54.2754 538.019 55.078C536.012 55.7803 534.257 56.7836 532.752 58.0878C531.247 59.392 530.043 60.947 529.14 62.7529C528.237 64.4584 527.736 66.2642 527.635 68.1704H559.388ZM582.111 77.6511C582.111 78.6543 582.111 79.6576 582.111 80.6608C582.111 81.6641 582.061 82.6171 581.961 83.5201H527.635C527.836 85.6269 528.438 87.533 529.441 89.2386C530.545 90.9441 531.899 92.4489 533.504 93.7532C535.21 94.9571 537.066 95.9101 539.072 96.6124C541.179 97.3147 543.336 97.6658 545.543 97.6658C549.456 97.6658 552.767 96.9635 555.475 95.559C558.184 94.0541 560.391 92.148 562.097 89.8405L579.252 100.676C575.741 105.792 571.076 109.755 565.257 112.564C559.538 115.273 552.867 116.627 545.242 116.627C539.624 116.627 534.307 115.774 529.291 114.069C524.274 112.263 519.86 109.705 516.048 106.394C512.336 102.983 509.376 98.8195 507.169 93.9036C505.062 88.9877 504.009 83.3696 504.009 77.0491C504.009 70.9293 505.062 65.4115 507.169 60.4956C509.276 55.4793 512.135 51.2657 515.747 47.8547C519.358 44.3433 523.622 41.6346 528.538 39.7284C533.454 37.8222 538.771 36.8691 544.49 36.8691C550.008 36.8691 555.074 37.8222 559.689 39.7284C564.304 41.5342 568.267 44.1928 571.577 47.7042C574.888 51.2155 577.446 55.4793 579.252 60.4956C581.158 65.5118 582.111 71.2303 582.111 77.6511Z" fill="white"/>
<path d="M471.169 114.219H444.533L415.037 39.2764H442.275L458.077 87.8836H458.528L474.329 39.2764H500.664L471.169 114.219Z" fill="white"/>
<path d="M386.862 114.218V73.2858C386.862 71.179 386.661 69.1725 386.26 67.2664C385.959 65.3602 385.407 63.7048 384.605 62.3003C383.802 60.7954 382.648 59.6417 381.144 58.8391C379.739 57.9362 377.933 57.4847 375.726 57.4847C373.519 57.4847 371.563 57.9362 369.857 58.8391C368.252 59.6417 366.897 60.7954 365.794 62.3003C364.69 63.8052 363.838 65.5608 363.236 67.5673C362.734 69.4735 362.483 71.48 362.483 73.5868L361.292 114.218H340.997L341.851 59.0399H328.292L338.292 39.1689H361.292V50.1689C363.292 47.1689 363.856 46.5873 365.342 44.9943C366.847 43.3891 368.553 42.0347 370.459 40.9312C372.465 39.8276 374.622 38.9247 376.93 38.2224C379.237 37.5201 381.695 37.169 384.304 37.169C389.32 37.169 393.584 38.0719 397.095 39.8778C400.607 41.6836 403.416 44.0412 405.522 46.9506C407.73 49.7597 409.285 53.0203 410.188 56.7323C411.191 60.4443 411.692 64.1563 411.692 67.8683V114.218H386.862Z" fill="white"/>
<path d="M350.292 39.1689H361.292V114.169L350.292 39.1689Z" fill="#F1F1F1"/>
<path d="M324.949 76.4472C324.949 82.567 323.846 88.135 321.638 93.1512C319.431 98.0671 316.422 102.281 312.609 105.792C308.797 109.203 304.383 111.862 299.366 113.768C294.35 115.674 288.983 116.627 283.264 116.627C277.646 116.627 272.279 115.674 267.162 113.768C262.146 111.862 257.732 109.203 253.919 105.792C250.207 102.281 247.248 98.0671 245.041 93.1512C242.833 88.135 241.73 82.567 241.73 76.4472C241.73 70.3274 242.833 64.8095 245.041 59.8936C247.248 54.9777 250.207 50.8142 253.919 47.4032C257.732 43.9922 262.146 41.3837 267.162 39.5779C272.279 37.7721 277.646 36.8691 283.264 36.8691C288.983 36.8691 294.35 37.7721 299.366 39.5779C304.383 41.3837 308.797 43.9922 312.609 47.4032C316.422 50.8142 319.431 54.9777 321.638 59.8936C323.846 64.8095 324.949 70.3274 324.949 76.4472ZM301.172 76.4472C301.172 74.0394 300.771 71.6818 299.968 69.3743C299.166 67.0668 298.012 65.0603 296.507 63.3548C295.002 61.549 293.146 60.0943 290.939 58.9907C288.732 57.8871 286.174 57.3353 283.264 57.3353C280.355 57.3353 277.797 57.8871 275.589 58.9907C273.382 60.0943 271.526 61.549 270.021 63.3548C268.617 65.0603 267.513 67.0668 266.711 69.3743C266.008 71.6818 265.657 74.0394 265.657 76.4472C265.657 78.855 266.008 81.2126 266.711 83.5201C267.513 85.8275 268.667 87.9343 270.172 89.8405C271.677 91.6463 273.533 93.1011 275.74 94.2046C277.947 95.3082 280.505 95.86 283.415 95.86C286.324 95.86 288.882 95.3082 291.09 94.2046C293.297 93.1011 295.153 91.6463 296.658 89.8405C298.162 87.9343 299.266 85.8275 299.968 83.5201C300.771 81.2126 301.172 78.855 301.172 76.4472Z" fill="white"/>
<path d="M224.089 63.5053C222.685 61.6995 220.778 60.2448 218.371 59.1412C215.963 58.0376 213.505 57.4858 210.997 57.4858C208.388 57.4858 206.031 58.0376 203.924 59.1412C201.817 60.1444 200.011 61.549 198.506 63.3548C197.001 65.0603 195.798 67.0668 194.895 69.3743C194.092 71.6818 193.691 74.1397 193.691 76.7481C193.691 79.3566 194.092 81.8145 194.895 84.122C195.697 86.4295 196.851 88.4861 198.356 90.292C199.961 91.9975 201.817 93.3519 203.924 94.3551C206.131 95.3584 208.589 95.86 211.298 95.86C213.806 95.86 216.264 95.4085 218.672 94.5056C221.18 93.5023 223.186 92.0978 224.691 90.292L238.385 106.996C235.275 110.006 231.262 112.363 226.346 114.069C221.431 115.774 216.214 116.627 210.696 116.627C204.777 116.627 199.259 115.724 194.142 113.918C189.026 112.113 184.561 109.504 180.749 106.093C177.037 102.582 174.077 98.3681 171.87 93.4522C169.763 88.5363 168.71 82.9683 168.71 76.7481C168.71 70.6283 169.763 65.1105 171.87 60.1946C174.077 55.2787 177.037 51.1152 180.749 47.7042C184.561 44.1928 189.026 41.5342 194.142 39.7284C199.259 37.8222 204.726 36.8691 210.545 36.8691C213.254 36.8691 215.913 37.1199 218.521 37.6216C221.23 38.1232 223.788 38.8255 226.196 39.7284C228.704 40.531 230.961 41.5844 232.968 42.8886C235.075 44.0925 236.881 45.4469 238.385 46.9518L224.089 63.5053Z" fill="white"/>
</svg>
