<svg width="811" height="153" viewBox="0 0 811 153" fill="none" xmlns="http://www.w3.org/2000/svg">
<path d="M34.9601 81.6201H16.0901C18.6401 111.03 42.2801 134.4 71.8101 136.53V116.75C49.2801 114.62 36.9901 98.7501 34.9601 81.6201Z" fill="#D40000"/>
<path d="M71.81 36.2402V16.1602C41.89 18.3202 18.01 42.2902 16 72.2502H34.86C36.58 54.7902 48.89 38.4102 71.81 36.2502V36.2402Z" fill="#FFB600"/>
<path d="M81.1801 16V36.32C87.5901 37.04 93.1401 38.88 97.8501 41.55L83.7501 55.65C69.5201 50.26 53.3201 61.53 53.6201 76.84C54.9001 110.66 105.89 103.45 97.7701 70.6L112.26 56.11C115.03 61.08 116.69 66.61 117.25 72.24H136.55V16H81.1801Z" fill="#3FCE71"/>
<path d="M81.1799 116.67V136.49C110.44 134.1 133.79 110.84 136.32 81.6299H117.15C115.14 98.5299 103.15 114.23 81.1799 116.68V116.67Z" fill="#1B75BB"/>
<path d="M794.59 75.9638C794.59 82.0836 793.487 87.6516 791.28 92.6678C789.072 97.5837 786.063 101.797 782.25 105.309C778.438 108.72 774.024 111.378 769.007 113.285C763.991 115.191 758.624 116.144 752.905 116.144C747.287 116.144 741.92 115.191 736.803 113.285C731.787 111.378 727.373 108.72 723.56 105.309C719.848 101.797 716.889 97.5837 714.682 92.6678C712.475 87.6516 711.371 82.0836 711.371 75.9638C711.371 69.844 712.475 64.3261 714.682 59.4102C716.889 54.4943 719.848 50.3308 723.56 46.9198C727.373 43.5088 731.787 40.9003 736.803 39.0945C741.92 37.2887 747.287 36.3857 752.905 36.3857C758.624 36.3857 763.991 37.2887 769.007 39.0945C774.024 40.9003 778.438 43.5088 782.25 46.9198C786.063 50.3308 789.072 54.4943 791.28 59.4102C793.487 64.3261 794.59 69.844 794.59 75.9638ZM770.813 75.9638C770.813 73.556 770.412 71.1984 769.609 68.8909C768.807 66.5834 767.653 64.5769 766.148 62.8714C764.643 61.0656 762.787 59.6109 760.58 58.5073C758.373 57.4037 755.815 56.8519 752.905 56.8519C749.996 56.8519 747.438 57.4037 745.231 58.5073C743.023 59.6109 741.167 61.0656 739.662 62.8714C738.258 64.5769 737.154 66.5834 736.352 68.8909C735.65 71.1984 735.298 73.556 735.298 75.9638C735.298 78.3716 735.65 80.7292 736.352 83.0367C737.154 85.3441 738.308 87.4509 739.813 89.3571C741.318 91.1629 743.174 92.6177 745.381 93.7212C747.588 94.8248 750.146 95.3766 753.056 95.3766C755.965 95.3766 758.524 94.8248 760.731 93.7212C762.938 92.6177 764.794 91.1629 766.299 89.3571C767.804 87.4509 768.907 85.3441 769.609 83.0367C770.412 80.7292 770.813 78.3716 770.813 75.9638Z" fill="#111111"/>
<path d="M643.936 58.9578C642.832 58.6568 641.729 58.4562 640.625 58.3559C639.622 58.2555 638.618 58.2054 637.615 58.2054C634.304 58.2054 631.495 58.8073 629.188 60.0112C626.981 61.2151 625.175 62.6699 623.77 64.3754C622.466 66.0809 621.513 67.9369 620.911 69.9435C620.309 71.95 620.008 73.7057 620.008 75.2105L619.295 113.736H598.672V58.5566H585.295L593.295 37.6855H619.295V49.6855C621.33 46.0574 623.7 42.9252 627.532 40.2973C631.044 37.8895 635.107 36.6855 639.722 36.6855C640.725 36.6855 641.678 36.7357 642.581 36.836C643.584 36.9364 644.387 37.0868 644.989 37.2875L643.936 58.9578Z" fill="#111111"/>
<path d="M608.295 37.6855H619.295V113.686L608.295 37.6855Z" fill="#2D2D2D"/>
<path d="M706.974 58.9578C705.87 58.6568 704.767 58.4562 703.663 58.3559C702.66 58.2555 701.656 58.2054 700.653 58.2054C697.342 58.2054 694.533 58.8073 692.226 60.0112C690.019 61.2151 688.213 62.6699 686.808 64.3754C685.504 66.0809 684.551 67.9369 683.949 69.9435C683.347 71.95 683.046 73.7057 683.046 75.2105L682.333 113.736H661.71V58.5566H648.333L656.333 37.6855H682.333V49.6855C684.368 46.0574 686.738 42.9252 690.57 40.2973C694.082 37.8895 698.145 36.6855 702.76 36.6855C703.763 36.6855 704.716 36.7357 705.619 36.836C706.623 36.9364 707.425 37.0868 708.027 37.2875L706.974 58.9578Z" fill="#111111"/>
<path d="M671.333 37.6855H682.333V113.686L671.333 37.6855Z" fill="#2D2D2D"/>
<path d="M559.228 67.687C559.228 63.7743 557.974 60.4135 555.466 57.6044C553.058 54.7953 549.396 53.3907 544.481 53.3907C542.073 53.3907 539.866 53.7921 537.859 54.5946C535.853 55.2969 534.097 56.3002 532.592 57.6044C531.087 58.9086 529.883 60.4636 528.98 62.2695C528.078 63.975 527.576 65.7808 527.476 67.687H559.228ZM581.952 77.1677C581.952 78.1709 581.952 79.1742 581.952 80.1774C581.952 81.1807 581.902 82.1337 581.801 83.0367H527.476C527.676 85.1435 528.278 87.0496 529.281 88.7552C530.385 90.4607 531.739 91.9655 533.345 93.2698C535.05 94.4737 536.906 95.4267 538.913 96.129C541.019 96.8313 543.176 97.1824 545.384 97.1824C549.296 97.1824 552.607 96.4801 555.316 95.0756C558.024 93.5707 560.232 91.6646 561.937 89.3571L579.093 100.192C575.581 105.309 570.916 109.272 565.097 112.081C559.379 114.789 552.707 116.144 545.083 116.144C539.464 116.144 534.147 115.291 529.131 113.585C524.115 111.78 519.7 109.221 515.888 105.911C512.176 102.5 509.216 98.3362 507.009 93.4202C504.903 88.5043 503.849 82.8862 503.849 76.5657C503.849 70.4459 504.903 64.9281 507.009 60.0122C509.116 54.9959 511.975 50.7823 515.587 47.3713C519.199 43.8599 523.463 41.1512 528.378 39.245C533.294 37.3388 538.612 36.3857 544.33 36.3857C549.848 36.3857 554.914 37.3388 559.529 39.245C564.144 41.0508 568.107 43.7094 571.418 47.2208C574.728 50.7322 577.287 54.9959 579.093 60.0122C580.999 65.0284 581.952 70.7469 581.952 77.1677Z" fill="#111111"/>
<path d="M471.009 113.735H444.373L414.878 38.793H442.116L457.917 87.4002H458.368L474.169 38.793H500.505L471.009 113.735Z" fill="#111111"/>
<path d="M386.702 113.735V72.8024C386.702 70.6956 386.502 68.6891 386.1 66.783C385.799 64.8768 385.248 63.2214 384.445 61.8169C383.642 60.312 382.489 59.1583 380.984 58.3557C379.579 57.4528 377.773 57.0013 375.566 57.0013C373.359 57.0013 371.403 57.4528 369.697 58.3557C368.092 59.1583 366.738 60.312 365.634 61.8169C364.531 63.3218 363.678 65.0774 363.076 67.0839C362.574 68.9901 362.323 70.9966 362.323 73.1034L361.132 113.735H340.837L341.691 58.5565H328.132L338.132 38.6855H361.132V49.6855C363.132 46.6855 363.696 46.1039 365.183 44.5109C366.688 42.9057 368.393 41.5513 370.299 40.4478C372.306 39.3442 374.463 38.4413 376.77 37.739C379.078 37.0367 381.536 36.6856 384.144 36.6856C389.16 36.6856 393.424 37.5885 396.936 39.3944C400.447 41.2002 403.256 43.5578 405.363 46.4672C407.57 49.2763 409.125 52.5369 410.028 56.2489C411.031 59.9609 411.533 63.6729 411.533 67.3849V113.735H386.702Z" fill="#111111"/>
<path d="M350.132 38.6855H361.132V113.686L350.132 38.6855Z" fill="#2D2D2D"/>
<path d="M324.789 75.9638C324.789 82.0836 323.686 87.6516 321.479 92.6678C319.272 97.5837 316.262 101.797 312.45 105.309C308.637 108.72 304.223 111.378 299.207 113.285C294.19 115.191 288.823 116.144 283.105 116.144C277.486 116.144 272.119 115.191 267.002 113.285C261.986 111.378 257.572 108.72 253.76 105.309C250.048 101.797 247.088 97.5837 244.881 92.6678C242.674 87.6516 241.57 82.0836 241.57 75.9638C241.57 69.844 242.674 64.3261 244.881 59.4102C247.088 54.4943 250.048 50.3308 253.76 46.9198C257.572 43.5088 261.986 40.9003 267.002 39.0945C272.119 37.2887 277.486 36.3857 283.105 36.3857C288.823 36.3857 294.19 37.2887 299.207 39.0945C304.223 40.9003 308.637 43.5088 312.45 46.9198C316.262 50.3308 319.272 54.4943 321.479 59.4102C323.686 64.3261 324.789 69.844 324.789 75.9638ZM301.013 75.9638C301.013 73.556 300.611 71.1984 299.809 68.8909C299.006 66.5834 297.852 64.5769 296.347 62.8714C294.843 61.0656 292.987 59.6109 290.779 58.5073C288.572 57.4037 286.014 56.8519 283.105 56.8519C280.195 56.8519 277.637 57.4037 275.43 58.5073C273.223 59.6109 271.367 61.0656 269.862 62.8714C268.457 64.5769 267.354 66.5834 266.551 68.8909C265.849 71.1984 265.498 73.556 265.498 75.9638C265.498 78.3716 265.849 80.7292 266.551 83.0367C267.354 85.3441 268.507 87.4509 270.012 89.3571C271.517 91.1629 273.373 92.6177 275.58 93.7212C277.787 94.8248 280.346 95.3766 283.255 95.3766C286.164 95.3766 288.723 94.8248 290.93 93.7212C293.137 92.6177 294.993 91.1629 296.498 89.3571C298.003 87.4509 299.106 85.3441 299.809 83.0367C300.611 80.7292 301.013 78.3716 301.013 75.9638Z" fill="#111111"/>
<path d="M223.929 63.0219C222.525 61.2161 220.619 59.7614 218.211 58.6578C215.803 57.5542 213.345 57.0024 210.837 57.0024C208.229 57.0024 205.871 57.5542 203.764 58.6578C201.657 59.661 199.852 61.0656 198.347 62.8714C196.842 64.5769 195.638 66.5834 194.735 68.8909C193.932 71.1984 193.531 73.6563 193.531 76.2647C193.531 78.8732 193.932 81.3311 194.735 83.6386C195.538 85.9461 196.691 88.0027 198.196 89.8086C199.801 91.5141 201.657 92.8685 203.764 93.8717C205.971 94.875 208.429 95.3766 211.138 95.3766C213.646 95.3766 216.104 94.9251 218.512 94.0222C221.02 93.019 223.027 91.6144 224.531 89.8086L238.226 106.513C235.116 109.522 231.103 111.88 226.187 113.585C221.271 115.291 216.054 116.144 210.536 116.144C204.617 116.144 199.099 115.241 193.983 113.435C188.866 111.629 184.402 109.021 180.589 105.61C176.877 102.098 173.918 97.8847 171.711 92.9688C169.604 88.0529 168.55 82.4849 168.55 76.2647C168.55 70.1449 169.604 64.6271 171.711 59.7112C173.918 54.7953 176.877 50.6318 180.589 47.2208C184.402 43.7094 188.866 41.0508 193.983 39.245C199.099 37.3388 204.567 36.3857 210.386 36.3857C213.094 36.3857 215.753 36.6365 218.361 37.1382C221.07 37.6398 223.628 38.3421 226.036 39.245C228.544 40.0476 230.802 41.101 232.808 42.4052C234.915 43.6091 236.721 44.9635 238.226 46.4684L223.929 63.0219Z" fill="#111111"/>
</svg>
