<svg width="38" height="38" viewBox="0 0 38 38" fill="none" xmlns="http://www.w3.org/2000/svg">
<path d="M19.0013 36.1152C17.9088 36.1152 16.8796 35.561 16.1513 34.5952L13.7763 31.4285C13.7288 31.3652 13.5388 31.2702 13.4438 31.2702H12.668C6.06547 31.2702 1.98047 29.481 1.98047 20.5827V12.666C1.98047 5.66768 5.66964 1.97852 12.668 1.97852H22.168C22.8171 1.97852 23.3555 2.51685 23.3555 3.16602C23.3555 3.81518 22.8171 4.35352 22.168 4.35352H12.668C6.99964 4.35352 4.35547 6.99768 4.35547 12.666V20.5827C4.35547 27.7393 6.80964 28.8952 12.668 28.8952H13.4596C14.2671 28.8952 15.1855 29.3543 15.6763 30.0035L18.0513 33.1702C18.6055 33.8985 19.3971 33.8985 19.9513 33.1702L22.3263 30.0035C22.8488 29.3068 23.6721 28.8952 24.543 28.8952H25.3346C31.003 28.8952 33.6471 26.251 33.6471 20.5827V15.8327C33.6471 15.1835 34.1855 14.6452 34.8346 14.6452C35.4838 14.6452 36.0221 15.1835 36.0221 15.8327V20.5827C36.0221 27.581 32.333 31.2702 25.3346 31.2702H24.543C24.4163 31.2702 24.3055 31.3335 24.2263 31.4285L21.8513 34.5952C21.123 35.561 20.0938 36.1152 19.0013 36.1152Z" fill="#292D32"/>
<path d="M19.0013 19.0007C18.1146 19.0007 17.418 18.2882 17.418 17.4173C17.418 16.5465 18.1305 15.834 19.0013 15.834C19.8721 15.834 20.5846 16.5465 20.5846 17.4173C20.5846 18.2882 19.888 19.0007 19.0013 19.0007Z" fill="#78C8A1"/>
<path d="M25.3333 19.0007C24.4467 19.0007 23.75 18.2882 23.75 17.4173C23.75 16.5465 24.4625 15.834 25.3333 15.834C26.2042 15.834 26.9167 16.5465 26.9167 17.4173C26.9167 18.2882 26.22 19.0007 25.3333 19.0007Z" fill="#78C8A1"/>
<path d="M12.6654 19.0007C11.7787 19.0007 11.082 18.2882 11.082 17.4173C11.082 16.5465 11.7945 15.834 12.6654 15.834C13.5362 15.834 14.2487 16.5465 14.2487 17.4173C14.2487 18.2882 13.552 19.0007 12.6654 19.0007Z" fill="#78C8A1"/>
<path d="M30.8763 12.2702C28.0421 12.2702 25.7305 9.95852 25.7305 7.12435C25.7305 4.29018 28.0421 1.97852 30.8763 1.97852C33.7105 1.97852 36.0221 4.29018 36.0221 7.12435C36.0221 9.95852 33.7105 12.2702 30.8763 12.2702ZM30.8763 4.35352C29.3563 4.35352 28.1055 5.60435 28.1055 7.12435C28.1055 8.64435 29.3563 9.89518 30.8763 9.89518C32.3963 9.89518 33.6471 8.64435 33.6471 7.12435C33.6471 5.60435 32.3963 4.35352 30.8763 4.35352Z" fill="#78C8A1"/>
</svg>
