<svg width="38" height="38" viewBox="0 0 38 38" fill="none" xmlns="http://www.w3.org/2000/svg">
<path d="M31.0452 6.94708C29.4786 5.37306 27.6128 4.12503 25.5565 3.2757C23.5003 2.42638 21.2947 1.99275 19.0683 2.00009C9.7397 2.00009 2.13668 9.56507 2.13668 18.847C2.13668 21.822 2.92261 24.712 4.39196 27.262L2 36L10.9698 33.654C13.4472 34.997 16.2322 35.711 19.0683 35.711C28.397 35.711 36 28.146 36 18.864C36 14.3591 34.2402 10.1261 31.0452 6.94708ZM19.0683 32.855C16.5397 32.855 14.0623 32.175 11.8925 30.9L11.3799 30.594L6.04925 31.988L7.46734 26.82L7.12563 26.293C5.72043 24.061 4.97444 21.4808 4.97286 18.847C4.97286 11.1291 11.2945 4.83908 19.0513 4.83908C22.81 4.83908 26.3467 6.30108 28.995 8.95307C30.3065 10.2516 31.3458 11.7964 32.0526 13.4977C32.7595 15.1991 33.1197 17.0231 33.1126 18.864C33.1467 26.582 26.8251 32.855 19.0683 32.855Z" fill="#292D32"/>
<path d="M23.4291 20.945C23.805 21.098 25.8894 22.118 26.3166 22.322C26.7437 22.526 27 22.611 27.1196 22.798C27.2392 22.985 27.2392 23.818 26.8804 24.804C26.5387 25.79 24.8472 26.691 24.0271 26.81C23.2925 26.912 22.3698 26.963 21.3618 26.64C20.7467 26.453 19.9608 26.198 18.9528 25.756C14.7156 23.937 11.9307 19.687 11.7256 19.398L11.7223 19.3936C11.5047 19.105 10 17.1091 10 15.046C10 12.972 11.0935 11.952 11.4693 11.527C11.8623 11.102 12.3065 11 12.597 11H13.4171C13.6734 11.017 14.0322 10.915 14.3739 11.731C14.7156 12.581 15.5698 14.655 15.6724 14.859C15.7749 15.063 15.8432 15.301 15.7065 15.59C15.5698 15.862 15.4844 16.049 15.2794 16.287C15.0744 16.525 14.8352 16.831 14.6472 17.018C14.4251 17.239 14.2201 17.46 14.4593 17.885C14.7156 18.31 15.5528 19.687 16.8171 20.809C18.4231 22.237 19.7899 22.696 20.2171 22.9C20.6442 23.121 20.9005 23.087 21.1397 22.798C21.3789 22.526 22.1819 21.574 22.4724 21.149C22.7628 20.741 23.0362 20.809 23.4291 20.945Z" fill="#78C8A1"/>
</svg>
